<svg width="21" height="15" viewBox="0 0 21 15" fill="none" xmlns="http://www.w3.org/2000/svg">
<path fill-rule="evenodd" clip-rule="evenodd" d="M4.03249 0.347518L5.07709 2.53658L19.3597 2.62409C19.9769 2.62787 20.6787 3.19805 20.4994 3.68199L18.1695 9.81151C17.9897 10.3763 17.7227 10.7789 17.1056 10.7751L8.20099 10.7205C7.936 10.7997 7.672 10.7173 7.58532 10.4742L3.05822 1.0691L0.677783 1.05452C-0.115697 1.04966 -0.109259 -0.00121538 0.684221 0.00364615L3.41732 0.0203914C3.68181 0.0220119 3.94531 0.185305 4.03249 0.347518ZM9.43133 11.3748C10.4011 11.3807 11.1902 12.1131 11.1847 13.0023C11.1793 13.8915 10.3813 14.6142 9.41152 14.6082C8.44171 14.6023 7.65268 13.8699 7.65813 12.9807C7.66358 12.0915 8.46152 11.3688 9.43133 11.3748ZM9.42637 12.1831C9.95536 12.1864 10.3055 12.5927 10.3031 12.9969C10.3001 13.4819 9.94545 13.8031 9.41647 13.7999C8.97565 13.7972 8.53681 13.4711 8.53978 12.9861C8.54225 12.5819 8.98555 12.1804 9.42637 12.1831ZM15.4265 11.4115C16.3963 11.4174 17.1853 12.1498 17.1799 13.039C17.1744 13.9282 16.3765 14.6509 15.4067 14.645C14.4369 14.639 13.6479 13.9066 13.6533 13.0174C13.6588 12.1282 14.4567 11.4056 15.4265 11.4115ZM15.4216 12.2199C15.9505 12.2231 16.3007 12.6294 16.2982 13.0336C16.2953 13.5186 15.9406 13.8398 15.4116 13.8366C14.9708 13.8339 14.532 13.5078 14.535 13.0228C14.5374 12.6186 14.9807 12.2172 15.4216 12.2199ZM13.2576 5.65861C13.4334 5.74052 13.5211 5.8219 13.6087 5.90328L15.1957 5.913C15.9892 5.91786 15.9827 6.96873 15.1893 6.96387L13.6023 6.95415C13.5131 7.11528 13.4245 7.19558 13.2482 7.1945L13.2382 8.81123C13.2343 9.45792 12.0881 9.4509 12.0921 8.80421L12.102 7.18748C11.9257 7.1864 11.7499 7.10448 11.6627 6.94227L10.0757 6.93254C9.3704 6.92822 9.37684 5.87735 10.0822 5.88167L11.6691 5.89139C11.7578 5.8111 11.9346 5.73134 12.1114 5.65158L12.1208 4.11569C12.1253 3.38816 13.2714 3.39519 13.267 4.12271L13.2576 5.65861Z" fill="white"/>
</svg>
