<svg width="24" height="22" viewBox="0 0 24 22" fill="none" xmlns="http://www.w3.org/2000/svg">
<path d="M1.82 22H19.435C20.44 22 21.255 21.1911 21.255 20.1935V14.0794C22.935 12.6005 24 10.4566 24 8.05955C24 3.61787 20.355 0 15.88 0C11.76 0 8.35 3.067 7.835 7.01737H1.82C0.815 7.01737 0 7.8263 0 8.82382V20.1886C0 21.1861 0.815 22 1.82 22ZM15.88 0.992556C19.805 0.992556 23 4.16377 23 8.05955C23 11.9553 19.805 15.1265 15.88 15.1265C14.815 15.1265 13.79 14.8983 12.83 14.4466C12.655 14.3623 12.445 14.3921 12.295 14.5161L10.715 15.8362V13.1266C10.715 13.0025 10.67 12.8834 10.585 12.794C9.405 11.4938 8.76 9.81638 8.76 8.06452C8.76 4.16377 11.955 0.992556 15.88 0.992556ZM9.715 13.3102V16.8983C9.715 17.0918 9.83 17.2655 10.005 17.3499C10.07 17.3797 10.145 17.3945 10.215 17.3945C10.33 17.3945 10.445 17.3548 10.535 17.2804L12.695 15.4789C13.705 15.9057 14.775 16.1241 15.88 16.1241C16.795 16.1241 17.675 15.9653 18.5 15.6873V19.2605H5.895V9.75682H7.95C8.23 11.062 8.83 12.2829 9.715 13.3102ZM1 8.82382C1 8.36725 1.36 8.00992 1.82 8.00992H7.76C7.76 8.02481 7.755 8.04466 7.755 8.05955C7.755 8.29777 7.765 8.53102 7.785 8.76427H5.385C5.11 8.76427 4.885 8.98759 4.885 9.26055V19.7519C4.885 20.0248 5.11 20.2481 5.385 20.2481H18.99C19.265 20.2481 19.49 20.0248 19.49 19.7519V15.2655C19.75 15.1365 20.005 14.9926 20.25 14.8387V20.1935C20.25 20.6452 19.88 21.0074 19.43 21.0074H1.82C1.37 21.0074 1 20.6402 1 20.1886V8.82382Z" fill="#0F890E"/>
<path d="M2.94507 15.8858C3.22007 15.8858 3.44507 15.6624 3.44507 15.3895V13.6227C3.44507 13.3498 3.22007 13.1265 2.94507 13.1265C2.67007 13.1265 2.44507 13.3498 2.44507 13.6227V15.3895C2.44507 15.6624 2.67007 15.8858 2.94507 15.8858Z" fill="#0F890E"/>
<path d="M12.3201 11.9305H19.4401C19.6801 11.9305 19.8851 11.7618 19.9301 11.5335L20.9451 6.50623C20.9751 6.36231 20.9351 6.20846 20.8401 6.09432C20.7451 5.98018 20.6051 5.9107 20.4551 5.9107H18.8551L19.5401 3.737C19.6251 3.47397 19.4751 3.19606 19.2151 3.11665C18.9501 3.03229 18.6701 3.18117 18.5901 3.43923L17.8101 5.90573H13.9601L13.1801 3.43923C13.0951 3.17621 12.8201 3.03229 12.5551 3.11665C12.2901 3.20102 12.1451 3.47894 12.2301 3.737L12.9201 5.9107H11.3201C11.1701 5.9107 11.0301 5.97521 10.9351 6.09432C10.8401 6.20846 10.8001 6.36231 10.8301 6.50623L11.8451 11.5335C11.8751 11.7668 12.0801 11.9305 12.3201 11.9305ZM13.5851 6.90325C13.5851 6.90325 13.5901 6.90325 13.5851 6.90325C13.5901 6.90325 13.5901 6.90325 13.5851 6.90325H18.1651H19.8351L19.0201 10.938H12.7201L11.9051 6.90325H13.5851Z" fill="#0F890E"/>
<path d="M14.0801 10.2233C14.3551 10.2233 14.5801 9.99998 14.5801 9.72702V8.11908C14.5801 7.84613 14.3551 7.6228 14.0801 7.6228C13.8051 7.6228 13.5801 7.84613 13.5801 8.11908V9.72702C13.5801 9.99998 13.8001 10.2233 14.0801 10.2233Z" fill="#0F890E"/>
<path d="M15.8799 10.2233C16.1549 10.2233 16.3799 9.99998 16.3799 9.72702V8.11908C16.3799 7.84613 16.1549 7.6228 15.8799 7.6228C15.6049 7.6228 15.3799 7.84613 15.3799 8.11908V9.72702C15.3799 9.99998 15.6049 10.2233 15.8799 10.2233Z" fill="#0F890E"/>
<path d="M17.6799 10.2233C17.9549 10.2233 18.1799 9.99998 18.1799 9.72702V8.11908C18.1799 7.84613 17.9549 7.6228 17.6799 7.6228C17.4049 7.6228 17.1799 7.84613 17.1799 8.11908V9.72702C17.1799 9.99998 17.4049 10.2233 17.6799 10.2233Z" fill="#0F890E"/>
</svg>
