<svg width="31" height="15" viewBox="0 0 31 15" fill="none" xmlns="http://www.w3.org/2000/svg">
<g clip-path="url(#clip0)">
<path d="M29.3967 11.9082H26.2539C26.0294 11.9082 25.8263 11.7692 25.7515 11.5554C25.4736 10.7751 24.6184 10.3688 23.838 10.6468C23.4104 10.7964 23.0791 11.1278 22.9294 11.5554C22.8546 11.7692 22.6515 11.9082 22.427 11.9082H19.5836C19.2842 11.9082 19.0491 11.673 19.0491 11.3737V2.9716C19.0491 2.08436 19.7653 1.36816 20.6525 1.36816H25.7194C26.3287 1.35747 26.8953 1.71023 27.1625 2.2554L28.1032 5.40885C28.1567 5.47298 28.2315 5.52643 28.3063 5.56919L30.1129 6.46712C30.658 6.73436 31.0001 7.29022 31.0001 7.89953V10.2513C31.0322 11.1385 30.3373 11.8761 29.4501 11.9082C29.4287 11.9082 29.418 11.9082 29.3967 11.9082ZM26.6067 10.8392H29.3967C29.696 10.8392 29.9311 10.604 29.9311 10.3047V7.95298C29.9311 7.74988 29.8135 7.56816 29.6318 7.48264L27.8253 6.56333C27.5153 6.41367 27.2587 6.15712 27.1091 5.84712L26.1684 2.64023C26.0615 2.50126 25.8904 2.42643 25.7194 2.43712H20.6525C20.3532 2.43712 20.118 2.67229 20.118 2.9716V10.8392H22.0849C22.5339 10.0054 23.3998 9.4816 24.3405 9.4816C25.2918 9.49229 26.1577 10.0054 26.6067 10.8392Z" fill="#0F890E"/>
<path d="M24.3404 14.5807C22.9186 14.5807 21.7642 13.4262 21.7642 12.0045C21.7642 11.7159 21.8176 11.4272 21.9245 11.1493C22.3948 9.8131 23.8593 9.10758 25.1955 9.57793C25.9331 9.83448 26.5104 10.4117 26.7669 11.1493C26.8631 11.4272 26.9166 11.7159 26.9166 12.0045C26.9166 13.4262 25.7621 14.5807 24.3404 14.5807ZM24.3404 10.4972C23.7097 10.4972 23.1431 10.9034 22.9293 11.5021C22.8652 11.6624 22.8331 11.8334 22.8331 12.0045C22.8331 12.8383 23.5066 13.5117 24.3404 13.5117C25.1742 13.5117 25.8476 12.8383 25.8476 12.0045C25.8476 11.8334 25.8155 11.6624 25.7514 11.5021C25.5376 10.9034 24.9711 10.4972 24.3404 10.4972Z" fill="#0F890E"/>
<path d="M19.5834 11.9083H11.2883C11.0638 11.9083 10.8607 11.7693 10.7859 11.5555C10.5079 10.7752 9.65276 10.369 8.87241 10.6469C8.44483 10.7966 8.11345 11.1279 7.96379 11.5555C7.88896 11.7693 7.68586 11.9083 7.46138 11.9083H5.97552C5.67621 11.9083 5.44103 11.6731 5.44103 11.3738C5.44103 11.0745 5.67621 10.8393 5.97552 10.8393H7.11931C7.56827 10.0055 8.43414 9.48172 9.37483 9.48172C10.3262 9.49241 11.1921 10.0055 11.641 10.8393H19.049V1.60345C19.0383 1.31483 18.8031 1.07966 18.5145 1.06897H0.534483C0.235172 1.06897 0 0.833793 0 0.534483C0 0.235172 0.235172 0 0.534483 0H18.5145C19.4017 0 20.1179 0.716207 20.1179 1.60345V11.3203C20.15 11.609 19.9362 11.8762 19.6369 11.9083C19.6262 11.9083 19.6048 11.9083 19.5834 11.9083Z" fill="#0F890E"/>
<path d="M9.37479 14.5807C7.95307 14.5807 6.79858 13.4262 6.79858 12.0045C6.79858 11.7159 6.85203 11.4272 6.95893 11.1493C7.42927 9.8131 8.89376 9.10758 10.23 9.57793C10.9675 9.83448 11.5448 10.4117 11.8013 11.1493C11.8976 11.4272 11.951 11.7159 11.951 12.0045C11.951 13.4262 10.7965 14.5807 9.37479 14.5807ZM9.37479 10.4972C8.75479 10.5186 8.22031 10.9248 8.0172 11.5021C7.95307 11.6624 7.921 11.8334 7.921 12.0045C7.921 12.8383 8.59445 13.5117 9.42824 13.5117C10.262 13.5117 10.9355 12.8383 10.9355 12.0045C10.9355 11.8334 10.9034 11.6624 10.8393 11.5021C10.6255 10.8821 10.0269 10.4759 9.37479 10.4972Z" fill="#0F890E"/>
<path d="M7.33318 4.96008H1.89215C1.59284 4.96008 1.35767 4.72491 1.35767 4.4256C1.35767 4.12629 1.59284 3.89111 1.89215 3.89111H7.33318C7.63249 3.89111 7.86767 4.12629 7.86767 4.4256C7.86767 4.72491 7.63249 4.96008 7.33318 4.96008Z" fill="#0F890E"/>
<path d="M10.0589 7.7821H3.26031C2.961 7.7821 2.72583 7.54693 2.72583 7.24762C2.72583 6.94831 2.961 6.71313 3.26031 6.71313H10.0589C10.3582 6.71313 10.5934 6.94831 10.5934 7.24762C10.5934 7.54693 10.3582 7.7821 10.0589 7.7821Z" fill="#0F890E"/>
</g>
<defs>
<clipPath id="clip0">
<rect width="31" height="14.5807" fill="white"/>
</clipPath>
</defs>
</svg>
