<svg width="20" height="20" viewBox="0 0 20 20" fill="none" xmlns="http://www.w3.org/2000/svg">
<g clip-path="url(#clip0)">
<path d="M10.0044 0C4.48352 0 0 4.48352 0 10.0044C0 15.5253 4.48352 20.0088 10.0044 20.0088C15.5253 20.0088 20.0088 15.5253 20.0088 10.0044C20.0088 4.48352 15.5165 0 10.0044 0ZM10.0044 1.3978C14.7692 1.3978 18.611 5.23956 18.611 10.0044C18.611 14.7692 14.7692 18.611 10.0044 18.611C5.23956 18.611 1.3978 14.7692 1.3978 10.0044C1.3978 5.23956 5.23956 1.3978 10.0044 1.3978Z" fill="#0F890E"/>
<path d="M9.99571 3.2439C9.6089 3.25269 9.30121 3.56916 9.31 3.94718V9.99554C9.31 10.1802 9.38033 10.356 9.5122 10.4878L13.2309 14.2065C13.4946 14.4879 13.9342 14.5054 14.2155 14.2417C14.4968 13.9779 14.5144 13.5384 14.2507 13.2571C14.2419 13.2483 14.2331 13.2395 14.2155 13.2219L10.699 9.70544V3.94718C10.7078 3.56037 10.4001 3.2439 10.0133 3.2439C10.0045 3.2439 9.99571 3.2439 9.99571 3.2439Z" fill="#0F890E"/>
</g>
<defs>
<clipPath id="clip0">
<rect width="20" height="20" fill="white"/>
</clipPath>
</defs>
</svg>
