<svg width="25" height="20" viewBox="0 0 25 20" fill="none" xmlns="http://www.w3.org/2000/svg">
<g clip-path="url(#clip0)">
<path d="M12.5014 14.6669C14.2879 14.6669 15.7361 13.2066 15.7361 11.4053C15.7361 9.60399 14.2879 8.14374 12.5014 8.14374C10.7149 8.14374 9.2666 9.60399 9.2666 11.4053C9.2666 13.2066 10.7149 14.6669 12.5014 14.6669Z" fill="#636363"/>
<path d="M0 5.84808V17.192C0 18.5783 1.12655 19.7112 2.49852 19.7112H22.4985C23.8734 19.7112 25 18.5753 25 17.192V5.84808C25 4.46177 23.8734 3.32887 22.4985 3.32887H19.5003C19.0863 3.32887 18.6428 3.00689 18.5127 2.61037L17.738 1.38207C17.6079 0.985556 17.1644 0.663574 16.7504 0.663574H8.24956C7.8356 0.663574 7.39503 0.985556 7.26493 1.38207L6.48729 2.61037C6.35719 3.00391 5.91366 3.32589 5.4997 3.32589H2.49852C1.12655 3.32589 0 4.46177 0 5.84808ZM6.60556 11.447C6.60556 8.16456 9.24601 5.50225 12.5015 5.50225C15.7569 5.50225 18.3974 8.16456 18.3974 11.447C18.3974 14.7294 15.7569 17.3917 12.5015 17.3917C9.24601 17.3917 6.60556 14.7294 6.60556 11.447Z" fill="#636363"/>
</g>
<defs>
<clipPath id="clip0">
<rect width="25" height="19.0476" fill="white" transform="translate(0 0.663574)"/>
</clipPath>
</defs>
</svg>
