<svg width="61" height="59" viewBox="0 0 61 59" fill="none" xmlns="http://www.w3.org/2000/svg">
<g clip-path="url(#clip0)">
<path fill-rule="evenodd" clip-rule="evenodd" d="M14.7836 29.5362C15.19 29.91 15.2165 30.5427 14.8426 30.9491L3.40537 43.3835L14.7914 43.3629C15.212 43.3621 15.5881 43.6246 15.7324 44.0197L19.6216 54.6623L27.4104 38.746C27.6532 38.2499 28.2521 38.0446 28.7482 38.2874C29.2443 38.5301 29.4496 39.129 29.2069 39.6251L20.3862 57.6499C20.2101 58.0099 19.8359 58.2299 19.4357 58.2089C19.0354 58.188 18.6863 57.93 18.5488 57.5535L14.0944 45.3642L1.12488 45.3876C0.727674 45.3884 0.3677 45.1539 0.207741 44.7903C0.0477817 44.4268 0.118166 44.003 0.387066 43.7107L13.3706 29.5952C13.7445 29.1887 14.3771 29.1623 14.7836 29.5362Z" fill="#353535"/>
<path fill-rule="evenodd" clip-rule="evenodd" d="M45.5515 29.629C45.958 29.2551 46.5906 29.2814 46.9645 29.6878L60.0037 43.859C60.2727 44.1513 60.3431 44.5751 60.1832 44.9387C60.0233 45.3023 59.6633 45.5368 59.266 45.5361L46.2964 45.5126L41.8421 57.6959C41.7045 58.0723 41.3555 58.3302 40.9553 58.3512C40.5551 58.3722 40.1811 58.1523 40.0048 57.7924L31.11 39.6316C30.867 39.1356 31.0722 38.5366 31.5682 38.2937C32.0642 38.0507 32.6632 38.2559 32.9061 38.7519L40.7692 54.8061L44.6585 44.1679C44.8029 43.773 45.179 43.5106 45.5995 43.5113L56.985 43.5319L45.4928 31.042C45.1188 30.6356 45.1451 30.003 45.5515 29.629Z" fill="#353535"/>
<path fill-rule="evenodd" clip-rule="evenodd" d="M30.1944 1.92783C20.3239 1.92783 12.3223 9.92947 12.3223 19.8C12.3223 29.6705 20.3239 37.6722 30.1944 37.6722C40.0649 37.6722 48.0666 29.6705 48.0666 19.8C48.0666 9.92947 40.0649 1.92783 30.1944 1.92783ZM10.3223 19.8C10.3223 8.8249 19.2193 -0.0721741 30.1944 -0.0721741C41.1695 -0.0721741 50.0666 8.8249 50.0666 19.8C50.0666 30.7751 41.1695 39.6722 30.1944 39.6722C19.2193 39.6722 10.3223 30.7751 10.3223 19.8Z" fill="#353535"/>
<path fill-rule="evenodd" clip-rule="evenodd" d="M39.1974 13.5075C39.5878 13.8981 39.5876 14.5313 39.197 14.9217L28.0259 26.0867C27.6353 26.477 27.0023 26.4769 26.6118 26.0865L21.1933 20.6679C20.8028 20.2774 20.8028 19.6442 21.1933 19.2537C21.5838 18.8632 22.217 18.8632 22.6075 19.2537L27.3191 23.9653L37.7832 13.5071C38.1738 13.1167 38.807 13.1169 39.1974 13.5075Z" fill="#353535"/>
</g>
<defs>
<clipPath id="clip0">
<rect width="60" height="58.2804" fill="white" transform="translate(0.195312)"/>
</clipPath>
</defs>
</svg>
