<svg width="21" height="23" viewBox="0 0 21 23" fill="none" xmlns="http://www.w3.org/2000/svg">
<path d="M10.0047 0C7.65879 0 5.75308 1.90571 5.75308 4.25159V4.50169H4.00242C3.17961 4.50169 2.52937 5.17695 2.50186 5.97975L0.000920905 20.4852C-0.0290903 21.328 0.678675 22.0082 1.50148 22.0082H18.5079C19.3307 22.0082 20.0384 21.328 20.0084 20.4852L17.5075 5.97975C17.48 5.17945 16.8297 4.50169 16.0069 4.50169H14.2563V4.25159C14.2563 1.90571 12.353 0 10.0047 0ZM10.0047 1.00037C11.8153 1.00037 13.2559 2.44091 13.2559 4.25159V4.50169H6.75345V4.25159C6.75345 2.44342 8.19649 1.00037 10.0047 1.00037ZM4.00242 5.50206H5.75308V6.83757C5.17286 7.04515 4.7527 7.60535 4.7527 8.25309C4.7527 9.0759 5.43045 9.75366 6.25326 9.75366C7.07607 9.75366 7.75382 9.0759 7.75382 8.25309C7.75382 7.60535 7.33367 7.04765 6.75345 6.83757V5.50206H13.2559V6.83757C12.6757 7.04515 12.2555 7.60535 12.2555 8.25309C12.2555 9.0759 12.9333 9.75366 13.7561 9.75366C14.5789 9.75366 15.2566 9.0759 15.2566 8.25309C15.2566 7.60535 14.8365 7.04765 14.2563 6.83757V5.50206H16.0069C16.292 5.50206 16.4971 5.71214 16.5071 6.01725L19.008 20.5227C19.018 20.7878 18.793 21.0079 18.5079 21.0079H1.50148C1.21638 21.0079 0.991292 20.7878 1.0013 20.5227L3.50223 6.01725C3.51474 5.71214 3.71731 5.50206 4.00242 5.50206ZM6.25326 7.75291C6.53587 7.75291 6.75345 7.97049 6.75345 8.25309C6.75345 8.5357 6.53587 8.75328 6.25326 8.75328C5.97066 8.75328 5.75308 8.5357 5.75308 8.25309C5.75308 7.97049 5.97316 7.75291 6.25326 7.75291ZM13.7561 7.75291C14.0387 7.75291 14.2563 7.97049 14.2563 8.25309C14.2563 8.5357 14.0387 8.75328 13.7561 8.75328C13.4735 8.75328 13.2559 8.5357 13.2559 8.25309C13.2559 7.97049 13.476 7.75291 13.7561 7.75291Z" fill="#222222"/>
</svg>
