<svg width="34" height="34" viewBox="0 0 34 34" fill="none" xmlns="http://www.w3.org/2000/svg">
<path fill-rule="evenodd" clip-rule="evenodd" d="M28.4942 0.0078125C25.4658 0.0078125 22.9881 2.48553 22.9881 5.51387C22.9881 6.89039 23.4928 8.22101 24.4334 9.23046C24.6629 9.48282 25.0529 9.50574 25.2823 9.27632C25.5347 9.0469 25.5576 8.6569 25.3282 8.42748C24.594 7.64745 24.204 6.61511 24.204 5.53684C24.204 3.17381 26.1082 1.24663 28.4942 1.24663C30.8801 1.24663 32.7843 3.15087 32.7843 5.53684C32.7843 6.56922 32.4172 7.57863 31.729 8.35865C31.4996 8.61101 31.5225 9.00102 31.7749 9.20749C32.0272 9.43691 32.4172 9.414 32.6237 9.16164C33.4955 8.15219 33.9773 6.86747 33.9773 5.53684C34.0002 2.46261 31.5225 0.0078125 28.4942 0.0078125ZM18.2162 3.03617C18.0556 3.03617 17.895 3.10496 17.7803 3.21967L0.183784 20.8162C-0.0456362 21.0456 -0.0456362 21.4356 0.183784 21.665L6.2634 27.7446L12.343 33.8243C12.5724 34.0537 12.9625 34.0537 13.1919 33.8243L30.7884 16.2278C30.9031 16.1131 30.9719 15.9525 30.9719 15.7919V3.65558C30.9719 3.31145 30.6966 3.05906 30.3754 3.05906H26.7276C26.3835 3.05906 26.1082 3.33439 26.1082 3.65558C26.1082 3.99971 26.3835 4.27498 26.7047 4.27498C26.7047 4.27498 26.7047 4.27498 26.7276 4.27498H29.756V15.5625L12.756 32.5625L7.11226 26.9187L1.46853 21.275L18.4685 4.27498H21.2445C21.5886 4.27498 21.8639 3.99973 21.8639 3.67854C21.8639 3.33441 21.5886 3.05906 21.2675 3.05906C21.2675 3.05906 21.2675 3.05906 21.2445 3.05906L18.2162 3.03617ZM26.0623 7.14273C25.7182 7.16567 25.4658 7.44097 25.4888 7.7851C25.4888 7.9457 25.5805 8.1063 25.6953 8.22101C25.9476 8.45043 26.1082 8.77165 26.1082 9.11578C26.1082 9.80404 25.5805 10.3317 24.8923 10.3317C24.204 10.3317 23.6764 9.80404 23.6764 9.11578C23.6764 8.77165 23.424 8.4963 23.0799 8.4963C22.7357 8.4963 22.4604 8.74868 22.4604 9.09281C22.4604 9.09281 22.4604 9.09283 22.4604 9.11578C22.4604 10.4464 23.5616 11.5476 24.8923 11.5476C26.2229 11.5476 27.3241 10.4464 27.3241 9.11578C27.3241 8.42752 27.0259 7.76218 26.5212 7.30334C26.4065 7.21157 26.2688 7.14273 26.1312 7.14273C26.1082 7.14273 26.0853 7.14273 26.0623 7.14273ZM16.4726 13.2223C16.1973 13.2453 15.9908 13.4288 15.922 13.6812L13.2607 23.638C13.1689 23.9592 13.3525 24.3034 13.6737 24.3951C13.9948 24.4869 14.339 24.3033 14.4307 23.9821V23.9592L17.092 14.0024C17.1838 13.6812 17.0002 13.3371 16.6791 13.2453C16.6102 13.2224 16.5414 13.2223 16.4726 13.2223ZM19.5927 15.9295C19.2486 15.9066 18.8815 15.9754 18.5603 16.1589C17.6885 16.6636 17.3903 17.7878 17.895 18.6367C18.3997 19.5085 19.5239 19.8067 20.3727 19.302C21.2445 18.7973 21.5428 17.6731 21.038 16.8242C20.7168 16.2966 20.1662 15.9754 19.5927 15.9295ZM19.3862 17.1455C19.6156 17.1225 19.8451 17.2143 19.9827 17.4437C20.1433 17.742 20.0515 18.109 19.7533 18.2696C19.455 18.4302 19.088 18.3384 18.9274 18.0402C18.7668 17.7419 18.8585 17.3749 19.1568 17.2143C19.2256 17.1684 19.3174 17.1455 19.3862 17.1455ZM11.0124 18.0861C10.6683 18.0632 10.3012 18.1319 9.98 18.3155C9.10821 18.8202 8.80996 19.9444 9.31469 20.7932C9.81941 21.6421 10.9436 21.9633 11.7924 21.4586C12.6413 20.9538 12.9625 19.8296 12.4577 18.9808C12.1595 18.4302 11.6089 18.109 11.0124 18.0861ZM10.8059 19.2791C11.0353 19.2561 11.2648 19.3479 11.4024 19.5773C11.563 19.8756 11.4712 20.2426 11.173 20.4032C10.8747 20.5638 10.5077 20.472 10.3471 20.1738C10.1865 19.8755 10.2782 19.5085 10.5765 19.3479C10.6683 19.3249 10.7371 19.302 10.8059 19.2791Z" fill="black"/>
</svg>
