<svg width="16" height="15" viewBox="0 0 16 15" fill="none" xmlns="http://www.w3.org/2000/svg">
<g clip-path="url(#clip0)">
<path d="M6.51356 10.5303C6.40757 10.6395 6.23735 10.6475 6.12816 10.5383L2.97914 7.38931C2.73023 7.1404 3.1076 6.76143 3.35811 7.01033L6.31604 9.96986L14.7081 1.57783C14.957 1.32893 15.336 1.7079 15.087 1.95681L6.51356 10.5303ZM11.4756 0.794189C11.8288 0.794189 11.8288 1.33053 11.4756 1.33053H2.44922C1.48893 1.33053 0.703685 2.11418 0.703685 3.07446V12.1024C0.703685 13.0611 1.49054 13.8463 2.44922 13.8463H11.4756C12.4358 13.8463 13.2211 13.0627 13.2211 12.1024V6.49326C13.2211 6.14158 13.7558 6.14158 13.7558 6.49326V12.1024C13.7558 13.3565 12.7297 14.3827 11.4756 14.3827H2.44922C1.19346 14.3827 0.168945 13.3565 0.168945 12.1024V3.07446C0.168945 1.82031 1.19507 0.794189 2.44922 0.794189H11.4756Z" fill="black"/>
</g>
<defs>
<clipPath id="clip0">
<rect width="15" height="13.5885" fill="white" transform="translate(0.168945 0.794189)"/>
</clipPath>
</defs>
</svg>
