<svg width="28" height="29" viewBox="0 0 28 29" fill="none" xmlns="http://www.w3.org/2000/svg">
<g clip-path="url(#clip0)">
<path d="M19.1493 27.4394H11.0591C10.7346 27.4394 10.4749 27.1798 10.4749 26.8552V9.44742C10.4749 8.37345 11.2716 7.4647 12.3337 7.31718C12.5521 7.28767 12.7114 7.09884 12.7114 6.8746C12.7114 6.8687 12.7173 6.8628 12.7173 6.851V3.29273C12.7173 3.21602 12.7822 3.15111 12.8589 3.15111H18.512C18.5887 3.15111 18.6537 3.21602 18.6537 3.29273V6.40843H14.045C13.8031 6.40843 13.6024 6.60906 13.6024 6.851C13.6024 7.09294 13.8031 7.29357 14.045 7.29357H18.7363C19.9224 7.29357 20.8901 8.25543 20.8901 9.44742V14.5812C20.8901 14.8232 21.0907 15.0238 21.3327 15.0238C21.5746 15.0238 21.7753 14.8232 21.7753 14.5812V9.44742C21.7694 8.0843 20.8547 6.88641 19.5388 6.53235V3.29273C19.5388 2.72624 19.0785 2.26596 18.512 2.26596H17.2256V0.885142H20.483C20.7249 0.885142 20.9255 0.68451 20.9255 0.442571C20.9255 0.200632 20.7249 0 20.483 0H13.0183C12.7763 0 12.5757 0.200632 12.5757 0.442571C12.5757 0.68451 12.7763 0.885142 13.0183 0.885142H14.1394V2.26596H12.8589C12.2924 2.26596 11.8322 2.72624 11.8322 3.29273V6.52645C10.5163 6.88641 9.6016 8.0843 9.5957 9.44742V26.8611C9.5957 27.6695 10.2507 28.3305 11.065 28.3305H19.1552C19.3972 28.3305 19.5978 28.1298 19.5978 27.8879C19.5978 27.6459 19.3913 27.4394 19.1493 27.4394ZM15.0246 0.885142H16.3405V2.26596H15.0246V0.885142Z" fill="black"/>
<path d="M16.4749 19.3137C16.4041 19.5202 16.5162 19.7444 16.7227 19.8152C16.9293 19.8861 17.1535 19.7739 17.2243 19.5674C17.2538 19.4848 17.9206 17.4962 17.2066 16.0091C16.7345 15.0709 16.0382 14.2566 15.1826 13.6429C15.1059 13.5838 15.0351 13.5248 14.976 13.4776C14.4686 13.0351 14.0083 12.5394 13.6188 11.9906C13.548 11.8785 13.4182 11.8136 13.2825 11.8195C13.1467 11.8254 13.0228 11.8962 12.9579 12.0083C12.9225 12.0673 12.0846 13.4776 12.5271 16.0445C12.9756 18.6528 15.3891 19.9687 15.4894 20.0218C15.5484 20.0513 15.6074 20.069 15.6724 20.069C15.8907 20.069 16.0677 19.892 16.0677 19.6736C16.0677 19.5261 15.9851 19.3904 15.8553 19.3255C15.8317 19.3137 13.6837 18.1453 13.3002 15.9147C13.1113 14.9529 13.1408 13.9556 13.4005 13.0115C13.725 13.4009 14.085 13.7668 14.4686 14.0972C14.5335 14.1503 14.6102 14.2093 14.6928 14.2743C15.454 14.8171 16.0677 15.5312 16.4926 16.3573C17.065 17.5434 16.4808 19.296 16.4749 19.3137Z" fill="black"/>
<path d="M18.3166 10.1497C18.175 9.98449 17.9272 9.96089 17.7619 10.1025C17.6911 10.1615 17.6439 10.2382 17.6262 10.3267C17.5023 10.8165 17.2722 11.2709 16.9535 11.6545C16.8768 11.7253 16.8001 11.7961 16.7116 11.8551C16.328 12.1206 16.0094 12.4629 15.7733 12.8642C15.673 13.0589 15.7556 13.2949 15.9503 13.3952C16.1392 13.4897 16.3693 13.4188 16.4755 13.2359C16.6644 12.935 16.9122 12.6812 17.2072 12.4806C17.3312 12.3921 17.4433 12.2918 17.5495 12.1855C17.7619 11.9436 17.939 11.6722 18.0806 11.383C18.3048 12.0262 18.4051 12.7107 18.3756 13.3893C18.352 14.0798 18.1278 14.7466 17.7324 15.3131C17.6085 15.496 17.6616 15.7438 17.8446 15.8618C18.0275 15.9799 18.2753 15.9327 18.3933 15.7497C18.8713 15.0593 19.1428 14.245 19.1723 13.4011C19.2608 12.2564 18.9598 11.1057 18.3166 10.1497Z" fill="black"/>
<path d="M14.4269 14.9472C14.3679 14.7347 14.1437 14.6167 13.9372 14.6816C13.7306 14.7465 13.6067 14.9649 13.6716 15.1714C13.8899 15.7733 14.1555 16.3516 14.4741 16.9004C14.7515 17.4374 15.076 17.9507 15.4478 18.4287C15.5894 18.594 15.8373 18.6176 16.0084 18.4759C16.1736 18.3343 16.1972 18.0865 16.0556 17.9153C15.7192 17.4787 15.4242 17.0125 15.1764 16.5227C14.8813 16.0152 14.6335 15.4901 14.4269 14.9472Z" fill="black"/>
<path d="M26.8503 19.4909H26.3488V18.6884H26.7618C27.0038 18.6884 27.2044 18.4878 27.2044 18.2458V16.0212C27.2044 15.7792 27.0038 15.5786 26.7618 15.5786H21.333C21.091 15.5786 20.8904 15.7792 20.8904 16.0212V18.2458C20.8904 18.4878 21.091 18.6884 21.333 18.6884H21.5513V19.4909H21.2444C20.6071 19.4909 20.0938 20.0043 20.0938 20.6416V27.174C20.0938 27.8113 20.6071 28.3247 21.2444 28.3247H26.8562C27.4935 28.3247 28.0069 27.8113 28.0069 27.174V20.6416C28.001 20.0043 27.4876 19.4909 26.8503 19.4909ZM21.7696 16.4638H26.3193V17.8033H21.7696V16.4638ZM26.8503 27.4395H21.2385C21.091 27.4395 20.973 27.3215 20.973 27.174V20.6416C20.973 20.4941 21.091 20.3761 21.2385 20.3761H21.988C22.2299 20.3761 22.4305 20.1755 22.4305 19.9335V18.6884H25.4636V19.9335C25.4636 20.1755 25.6642 20.3761 25.9062 20.3761H26.8503C26.9979 20.3761 27.1159 20.4941 27.1159 20.6416V21.3674H21.9703C21.7283 21.3674 21.5277 21.5681 21.5277 21.81C21.5277 22.052 21.7283 22.2526 21.9703 22.2526H27.1159V27.174C27.1159 27.3215 26.9979 27.4395 26.8503 27.4395Z" fill="black"/>
<path d="M8.30263 20.7182C8.20232 20.435 8.05479 20.1635 7.87186 19.9216L7.17555 19.007C6.93951 18.6942 6.88641 18.2871 7.02213 17.9212L7.61222 16.4105L7.61812 16.3987C7.62402 16.3751 7.62993 16.3456 7.62993 16.3161C7.63583 16.2925 7.64173 16.263 7.64763 16.2335V13.8259C7.64763 13.584 7.447 13.3834 7.20506 13.3834H5.75933V9.2291C5.74162 8.39706 5.05121 7.73616 4.21918 7.74796C3.41075 7.76566 2.75574 8.41477 2.73804 9.2291V13.3834H1.29231C1.05037 13.3834 0.849737 13.584 0.849737 13.8259V16.2335C0.849737 16.263 0.855637 16.2866 0.867439 16.3161C0.867439 16.3456 0.87334 16.3692 0.879241 16.3987L0.885142 16.4105L1.47524 17.9212C1.61686 18.2811 1.55785 18.6942 1.32181 19.0011L0.6255 19.9157C0.224236 20.4527 0 21.1077 0 21.7863V27.286C0 27.8584 0.466175 28.3246 1.04447 28.3246H7.4588C8.03709 28.3246 8.50327 27.8584 8.50327 27.2801V21.7804C8.50327 21.4264 8.43836 21.0782 8.32034 20.7418C8.30853 20.7359 8.30853 20.7241 8.30263 20.7182ZM3.62908 9.235C3.64089 8.89274 3.93003 8.6213 4.27229 8.6331C4.60274 8.6449 4.86828 8.91044 4.87418 9.235V13.3893H3.62908V9.235ZM1.73488 14.2744H6.76839V15.7969H1.73488V14.2744ZM7.61222 27.2801C7.61222 27.3686 7.54141 27.4394 7.4529 27.4394H1.04447C0.955954 27.4394 0.885142 27.3686 0.885142 27.2801V21.7804C0.885142 21.3024 1.04447 20.8304 1.33361 20.4468L2.02993 19.5321C2.44889 18.9775 2.54921 18.2398 2.30137 17.5907L1.94141 16.6761H6.56185L6.2019 17.5907C5.94816 18.2398 6.05437 18.9775 6.47334 19.5321L7.16965 20.4468L7.17555 20.4527H2.43709C2.19515 20.4527 1.99452 20.6533 1.99452 20.8953C1.99452 21.1372 2.19515 21.3378 2.43709 21.3378H7.56502C7.59452 21.4795 7.61222 21.627 7.61812 21.7745V27.2801H7.61222Z" fill="black"/>
<path d="M18.2105 21.3674H16.7707C16.5288 21.3674 16.3281 21.5681 16.3281 21.81C16.3281 22.0519 16.5288 22.2526 16.7707 22.2526H18.2105C18.4525 22.2526 18.6531 22.0519 18.6531 21.81C18.6531 21.5681 18.4525 21.3674 18.2105 21.3674Z" fill="black"/>
<path d="M15.455 21.3674H13.9621C13.7202 21.3674 13.5195 21.5681 13.5195 21.81C13.5195 22.0519 13.7202 22.2526 13.9621 22.2526H15.455C15.697 22.2526 15.8976 22.0519 15.8976 21.81C15.8976 21.5681 15.697 21.3674 15.455 21.3674Z" fill="black"/>
<path d="M18.2105 23.2202H16.7707C16.5288 23.2202 16.3281 23.4208 16.3281 23.6628C16.3281 23.9047 16.5288 24.1054 16.7707 24.1054H18.2105C18.4525 24.1054 18.6531 23.9047 18.6531 23.6628C18.6531 23.4208 18.4525 23.2202 18.2105 23.2202Z" fill="black"/>
<path d="M15.455 23.2202H13.9621C13.7202 23.2202 13.5195 23.4208 13.5195 23.6628C13.5195 23.9047 13.7202 24.1054 13.9621 24.1054H15.455C15.697 24.1054 15.8976 23.9047 15.8976 23.6628C15.8976 23.4208 15.697 23.2202 15.455 23.2202Z" fill="black"/>
</g>
<defs>
<clipPath id="clip0">
<rect width="28" height="28.3245" fill="white"/>
</clipPath>
</defs>
</svg>
