<svg width="29" height="26" viewBox="0 0 29 26" fill="none" xmlns="http://www.w3.org/2000/svg">
<path d="M21.2835 0.0746791H21.2369C19.3699 0.0933489 17.5963 0.891482 16.3361 2.27305L13.993 4.83081L11.5566 2.17036C10.3384 0.8028 8.59743 0.0140023 6.76313 0C4.92415 0.0140023 3.1832 0.8028 1.96033 2.17036C-0.653442 5.12485 -0.653442 9.56826 1.96033 12.5228L13.3069 24.9008C13.4842 25.0922 13.7363 25.2042 13.9977 25.2042C14.259 25.2042 14.5111 25.0922 14.6884 24.9008L26.035 12.5228C27.3139 11.1039 28.0187 9.25554 28.0047 7.34656C28.0233 5.4049 27.2952 3.52859 25.9697 2.10035C24.7561 0.8028 23.0572 0.0700117 21.2835 0.0746791ZM25.3396 11.8926L13.9977 24.2707L2.65111 11.8926C0.354726 9.29755 0.354726 5.39557 2.65111 2.80047C3.69662 1.62427 5.1902 0.947491 6.76313 0.933489C8.33605 0.947491 9.82497 1.62427 10.8705 2.80047L13.3069 5.46091C13.4889 5.64761 13.7363 5.75029 13.9977 5.75029C14.259 5.75029 14.5064 5.64761 14.6884 5.46091L17.0315 2.90315C18.1144 1.71295 19.6406 1.02684 21.2462 1.00817H21.2835C22.8005 1.0035 24.252 1.62894 25.2835 2.73979C26.4457 3.99066 27.0805 5.63827 27.0618 7.34656C27.0805 9.02217 26.4644 10.6464 25.3396 11.8926Z" fill="black"/>
<path d="M18.1982 11.6685H15.3977V8.86806C15.3977 8.35464 14.9776 7.93457 14.4642 7.93457H13.5307C13.0173 7.93457 12.5972 8.35464 12.5972 8.86806V11.6685H9.79677C9.28335 11.6685 8.86328 12.0886 8.86328 12.602V13.5355C8.86328 14.0489 9.28335 14.469 9.79677 14.469H12.5972V17.2695C12.5972 17.7829 13.0173 18.2029 13.5307 18.2029H14.4642C14.9776 18.2029 15.3977 17.7829 15.3977 17.2695V14.469H18.1982C18.7116 14.469 19.1317 14.0489 19.1317 13.5355V12.602C19.1317 12.0886 18.7116 11.6685 18.1982 11.6685ZM18.1982 13.5355H15.3977C14.8843 13.5355 14.4642 13.9556 14.4642 14.469V17.2695H13.5307V14.469C13.5307 13.9556 13.1107 13.5355 12.5972 13.5355H9.79677V12.602H12.5972C13.1107 12.602 13.5307 12.1819 13.5307 11.6685V8.86806H14.4642V11.6685C14.4642 12.1819 14.8843 12.602 15.3977 12.602H18.1982V13.5355Z" fill="black"/>
<path d="M6.76781 1.86694C6.67913 1.86694 6.59045 1.87161 6.50177 1.87628C6.33374 1.88095 6.18438 1.97429 6.10503 2.12365C6.02569 2.26834 6.03035 2.45037 6.11903 2.5904C6.20772 2.73042 6.36174 2.81443 6.52977 2.80977H6.55777C6.62779 2.8051 6.6978 2.80043 6.76781 2.80043C7.02452 2.80043 7.23455 2.5904 7.23455 2.33369C7.23455 2.07698 7.02452 1.86694 6.76781 1.86694Z" fill="black"/>
<path d="M4.02854 10.6326C2.36693 8.75627 2.36693 5.93713 4.02854 4.06082C4.28525 3.7761 4.5793 3.53339 4.90602 3.33269C5.05071 3.24868 5.13473 3.08999 5.13473 2.92196C5.13006 2.75393 5.03671 2.59991 4.89202 2.52056C4.74266 2.44121 4.5653 2.44588 4.42061 2.53456C4.01921 2.7866 3.65515 3.08532 3.33776 3.43071C1.35877 5.66642 1.35877 9.02698 3.33776 11.2627L4.42528 12.4482C4.5373 12.5696 4.70999 12.6256 4.86868 12.5882C5.03205 12.5509 5.16273 12.4295 5.21408 12.2709C5.26542 12.1122 5.22341 11.9395 5.11139 11.8134L4.02854 10.6326Z" fill="black"/>
</svg>
