<svg width="19" height="19" viewBox="0 0 19 19" fill="none" xmlns="http://www.w3.org/2000/svg">
<g clip-path="url(#clip0)">
<path d="M9.06543 0.794189C4.10257 0.794189 0.0654297 4.83133 0.0654297 9.79419C0.0654297 14.757 4.10257 18.7942 9.06543 18.7942C14.0283 18.7942 18.0654 14.757 18.0654 9.79419C18.0654 4.83133 14.0283 0.794189 9.06543 0.794189ZM9.06543 17.5085C4.80972 17.5085 1.35114 14.0499 1.35114 9.79419C1.35114 5.53848 4.80972 2.0799 9.06543 2.0799C13.3211 2.0799 16.7797 5.53848 16.7797 9.79419C16.7797 14.0499 13.3211 17.5085 9.06543 17.5085ZM14.8511 9.15133H10.8783C10.6854 8.6049 10.2547 8.18062 9.70829 7.98133V4.00848C9.70829 3.6549 9.419 3.36562 9.06543 3.36562C8.71186 3.36562 8.42257 3.6549 8.42257 4.00848V7.98133C7.67686 8.2449 7.13686 8.95205 7.13686 9.79419C7.13686 10.8549 8.00472 11.7228 9.06543 11.7228C9.90114 11.7228 10.6083 11.1828 10.8783 10.437H14.8511C15.2047 10.437 15.494 10.1478 15.494 9.79419C15.494 9.44062 15.2047 9.15133 14.8511 9.15133ZM9.06543 10.437C8.71186 10.437 8.42257 10.1478 8.42257 9.79419C8.42257 9.44062 8.71186 9.15133 9.06543 9.15133C9.419 9.15133 9.70829 9.44062 9.70829 9.79419C9.70829 10.1478 9.419 10.437 9.06543 10.437Z" fill="#444444"/>
</g>
<defs>
<clipPath id="clip0">
<rect width="18" height="18" fill="white" transform="translate(0.0654297 0.794189)"/>
</clipPath>
</defs>
</svg>
