<svg width="18" height="28" viewBox="0 0 18 28" fill="none" xmlns="http://www.w3.org/2000/svg">
<g clip-path="url(#clip0)">
<path d="M27.7107 15.0519L27.3094 13.8528C27.2301 13.6101 26.9642 13.4748 26.7215 13.5588C26.6516 13.5821 26.5909 13.6195 26.5396 13.6708L25.5411 14.6693C25.5317 14.6553 25.5224 14.6413 25.5084 14.632L23.0168 11.8278C22.8349 11.6365 22.5316 11.6271 22.3356 11.8091C22.3309 11.8138 22.3216 11.8231 22.3169 11.8278L19.83 14.632C19.816 14.646 19.8067 14.6599 19.7974 14.6739L18.7989 13.6754C18.6169 13.4935 18.3229 13.4935 18.141 13.6754C18.0897 13.7268 18.0523 13.7874 18.029 13.8574L17.6277 15.0565C16.9512 17.0629 17.4738 19.2792 18.9762 20.7723C19.2281 21.0242 19.5081 21.2528 19.8067 21.4535C19.8207 21.4628 19.8347 21.4675 19.8487 21.4721H17.1005C17.6184 20.0211 16.8672 18.4253 15.4161 17.9074C15.3088 17.8701 15.1968 17.8374 15.0802 17.8094C16.1533 16.6989 16.1206 14.9259 15.0102 13.8574C14.4876 13.3442 13.7924 13.0642 13.0645 13.0642H12.1313V8.86491C12.1313 8.09038 11.5061 7.46515 10.7315 7.46515H6.53224V6.52264C7.91801 6.41999 8.96317 5.21152 8.86052 3.82109C8.81853 3.29851 8.6179 2.79926 8.28195 2.39799L6.42493 0.167698C6.27562 -0.00960596 6.02366 -0.051599 5.82769 0.0650483L5.33311 0.358999C4.05466 1.13354 3.27079 2.51931 3.26612 4.01239C3.26612 5.33284 4.28329 6.42465 5.59907 6.52264V7.46515H1.39977C0.625229 7.46515 0 8.09038 0 8.86491V26.5953C0 27.3698 0.625229 27.9951 1.39977 27.9951H15.864C17.4084 27.9951 18.6636 26.7399 18.6636 25.1955H21.9297C23.2175 25.1955 24.2626 26.2407 24.2626 27.5285C24.2626 27.7851 24.4726 27.9951 24.7292 27.9951H27.5287C27.7854 27.9951 27.9953 27.7851 27.9953 27.5285V22.8626C27.9953 22.088 27.3701 21.4628 26.5956 21.4628H25.4944C25.807 21.2575 26.0963 21.0242 26.3623 20.7629C27.8647 19.2698 28.3873 17.0535 27.7107 15.0519ZM20.5252 15.2432L22.6669 12.8309L24.8132 15.2479C24.8365 15.2712 24.8552 15.2992 24.8785 15.3272L22.6669 17.5388L20.4599 15.3318C20.4833 15.2992 20.5019 15.2712 20.5252 15.2432ZM19.6341 20.1004C18.3836 18.8592 17.9497 17.0116 18.5096 15.3412L18.6729 14.8559L22.009 18.1967L19.8814 20.3243C19.7927 20.2497 19.7087 20.1797 19.6341 20.1004ZM16.3306 20.5296C16.3306 21.5608 15.4954 22.396 14.4643 22.396H10.265C9.23379 22.396 8.3986 21.5608 8.3986 20.5296C8.3986 19.4985 9.23379 18.6633 10.265 18.6633H14.4643C15.4954 18.6633 16.3306 19.4985 16.3306 20.5296ZM13.0645 13.9974C14.0957 13.9974 14.9308 14.8326 14.9308 15.8637C14.9308 16.8949 14.0957 17.7301 13.0645 17.7301H11.6647C10.6336 17.7301 9.79837 16.8949 9.79837 15.8637C9.79837 14.8326 10.6336 13.9974 11.6647 13.9974H13.0645ZM4.1993 4.01239C4.20397 2.84592 4.8152 1.7681 5.80903 1.1662L5.96301 1.07288L7.56341 2.99523C8.12331 3.66711 8.03466 4.66561 7.36277 5.22552C7.12481 5.42149 6.84019 5.54747 6.53224 5.58013V3.26585C6.53224 3.00922 6.32228 2.79926 6.06566 2.79926C5.80903 2.79926 5.59907 3.00922 5.59907 3.26585V5.58013C4.80587 5.48681 4.20397 4.81492 4.1993 4.01239ZM0.933178 8.86491C0.933178 8.60829 1.14314 8.39833 1.39977 8.39833H10.7315C10.9882 8.39833 11.1981 8.60829 11.1981 8.86491V9.3315H7.93201C7.67539 9.3315 7.46542 9.54147 7.46542 9.79809V13.9974C7.46542 14.5106 7.05016 14.9306 6.53224 14.9306C6.51358 14.9306 6.49958 14.9306 6.48092 14.9306C5.96767 14.8746 5.58507 14.436 5.59907 13.9181V11.6644C5.59907 11.4078 5.3891 11.1979 5.13248 11.1979C4.87585 11.1979 4.66589 11.4078 4.66589 11.6644C4.66589 12.1777 4.25062 12.5976 3.73271 12.5976C3.71405 12.5976 3.70005 12.5976 3.68139 12.5976C3.16814 12.5416 2.78554 12.103 2.79953 11.5851V9.79809C2.79953 9.54147 2.58957 9.3315 2.33294 9.3315H0.933178V8.86491ZM1.39977 27.0619C1.14314 27.0619 0.933178 26.8519 0.933178 26.5953V10.2647H1.86636V11.5851C1.84303 12.5976 2.62223 13.4515 3.63473 13.5261C3.994 13.5448 4.35327 13.4608 4.66589 13.2788V13.9134C4.64256 14.9259 5.42176 15.7798 6.43426 15.8544C6.46692 15.8544 6.50425 15.8591 6.53691 15.8591C7.01283 15.8591 7.47475 15.6771 7.82003 15.3458C8.18863 14.9959 8.3986 14.5106 8.3986 13.9974V10.2647H11.1981V13.1062C9.67705 13.3582 8.65056 14.7999 8.90252 16.321C8.99583 16.8762 9.25712 17.3942 9.64906 17.8001C8.14198 18.136 7.1948 19.6338 7.53541 21.1362C7.64739 21.6355 7.89468 22.0974 8.24929 22.466C6.74221 22.8019 5.79503 24.295 6.13564 25.8021C6.23829 26.2733 6.46692 26.7073 6.78887 27.0619H1.39977ZM15.864 27.0619H8.86519C7.83403 27.0619 6.99883 26.2267 6.99883 25.1955C6.99883 24.1644 7.83403 23.3292 8.86519 23.3292H15.864C16.8952 23.3292 17.7304 24.1644 17.7304 25.1955C17.7304 26.2267 16.8952 27.0619 15.864 27.0619ZM26.5956 22.396C26.8522 22.396 27.0622 22.606 27.0622 22.8626V23.3292H26.129V24.2623H27.0622V27.0619H25.1631C24.9298 25.4568 23.5534 24.2623 21.9297 24.2623H18.5002C18.1783 23.3572 17.4178 22.6806 16.4799 22.466C16.5032 22.4427 16.5219 22.4193 16.5452 22.396H26.5956ZM24.006 21.1735C23.5441 21.3415 23.0542 21.4395 22.5596 21.4535C22.2376 21.4442 21.9203 21.3835 21.6124 21.2808C21.2905 21.1689 20.9825 21.0102 20.7119 20.8049L22.9982 18.5186L26.6609 14.8559L26.8242 15.3412C27.6267 17.7301 26.3763 20.3197 24.006 21.1735Z" fill="black"/>
<path d="M15.398 9.79834H14.4648V10.7315H15.398V9.79834Z" fill="black"/>
<path d="M15.398 6.99878H14.4648V7.93196H15.398V6.99878Z" fill="black"/>
<path d="M16.7965 8.39868H15.8633V9.33186H16.7965V8.39868Z" fill="black"/>
<path d="M13.9976 8.39868H13.0645V9.33186H13.9976V8.39868Z" fill="black"/>
<path d="M12.5972 3.73267H11.6641V4.66584H12.5972V3.73267Z" fill="black"/>
<path d="M12.5972 0H11.6641V0.933178H12.5972V0Z" fill="black"/>
<path d="M14.4644 1.86621H13.5312V2.79939H14.4644V1.86621Z" fill="black"/>
<path d="M10.732 1.86621H9.79883V2.79939H10.732V1.86621Z" fill="black"/>
<path d="M2.80037 24.2627H1.86719V25.1959H2.80037V24.2627Z" fill="black"/>
<path d="M2.80037 21.4631H1.86719V23.3295H2.80037V21.4631Z" fill="black"/>
<path d="M2.80037 19.5967H1.86719V20.5299H2.80037V19.5967Z" fill="black"/>
</g>
<defs>
<clipPath id="clip0">
<rect width="28" height="27.9953" fill="white"/>
</clipPath>
</defs>
</svg>
