<svg width="21" height="17" viewBox="0 0 21 17" fill="none" xmlns="http://www.w3.org/2000/svg">
<g clip-path="url(#clip0)">
<path d="M0.574219 1.11878V13.5532C0.574219 13.728 0.724031 13.8778 0.898813 13.8778H2.19719C2.49682 15.2761 3.72029 16.2998 5.16848 16.2998C6.64163 16.2998 7.86511 15.2761 8.13976 13.8778H13.0336C13.3333 15.2761 14.5567 16.2998 16.0049 16.2998C17.4781 16.2998 18.7016 15.2761 18.9762 13.8778H20.2496C20.4244 13.8778 20.5742 13.728 20.5742 13.5532V6.86161C20.5742 6.7867 20.5493 6.73676 20.5243 6.68682L16.6541 0.944002C16.6042 0.844127 16.4793 0.794189 16.3795 0.794189H0.923782C0.749 0.794189 0.599188 0.944002 0.574219 1.11878ZM13.6329 13.2536C13.6329 11.9303 14.6816 10.8816 16.0049 10.8816C17.3283 10.8816 18.377 11.9552 18.377 13.2536C18.377 14.577 17.3033 15.6257 16.0049 15.6257C14.7066 15.6257 13.6579 14.577 13.6329 13.2536ZM2.82141 13.2536C2.82141 11.9303 3.89507 10.8816 5.19344 10.8816C6.51679 10.8816 7.56548 11.9552 7.56548 13.2536C7.56548 14.577 6.49182 15.6257 5.19344 15.6257C3.89507 15.6257 2.82141 14.577 2.82141 13.2536ZM1.27334 1.44338H11.6354V9.93277C11.6354 10.1075 11.7852 10.2574 11.96 10.2574C12.1348 10.2574 12.2846 10.1075 12.2846 9.93277V1.44338H16.2047L19.9001 6.96148V13.2037H19.0262C19.0012 11.5807 17.6529 10.2324 16.0049 10.2324C14.357 10.2324 13.0087 11.5807 12.9837 13.2037H8.21467C8.1897 11.5807 6.84138 10.2324 5.19344 10.2324C3.5455 10.2324 2.19719 11.5807 2.17222 13.2037H1.27334V1.44338Z" fill="black"/>
<path d="M7.29041 6.8367H8.2642C8.43898 6.8367 8.58879 6.68688 8.58879 6.5121C8.58879 6.33732 8.43898 6.18751 8.2642 6.18751H7.63998V5.68813H8.2642C8.43898 5.68813 8.58879 5.53832 8.58879 5.36354C8.58879 5.18876 8.43898 5.03894 8.2642 5.03894H7.63998V4.53957H8.2642C8.43898 4.53957 8.58879 4.38976 8.58879 4.21497C8.58879 4.04019 8.43898 3.89038 8.2642 3.89038H7.26545C7.09066 3.89038 6.96582 4.01522 6.96582 4.19001V6.56204C6.96582 6.71185 7.09066 6.8367 7.29041 6.8367Z" fill="black"/>
<path d="M9.41346 6.8367H10.3872C10.562 6.8367 10.7118 6.68688 10.7118 6.5121C10.7118 6.33732 10.562 6.18751 10.3872 6.18751H9.76303V5.68813H10.3872C10.562 5.68813 10.7118 5.53832 10.7118 5.36354C10.7118 5.18876 10.562 5.03894 10.3872 5.03894H9.76303V4.53957H10.3872C10.562 4.53957 10.7118 4.38976 10.7118 4.21497C10.7118 4.04019 10.562 3.89038 10.3872 3.89038H9.38849C9.21371 3.89038 9.08887 4.01522 9.08887 4.19001V6.56204C9.08887 6.71185 9.23868 6.8367 9.41346 6.8367Z" fill="black"/>
<path d="M2.72145 5.68813H3.14592C3.32071 5.68813 3.47052 5.53832 3.47052 5.36354C3.47052 5.18876 3.32071 5.03894 3.14592 5.03894H2.72145V4.53957H3.39561C3.57039 4.53957 3.72021 4.38976 3.72021 4.21497C3.72021 4.04019 3.57039 3.89038 3.39561 3.89038H2.39686C2.22208 3.89038 2.07227 4.04019 2.07227 4.21497V6.53707C2.07227 6.71185 2.22208 6.86167 2.39686 6.86167C2.57164 6.86167 2.72145 6.71185 2.72145 6.53707V5.68813Z" fill="black"/>
<path d="M4.89431 5.4384H5.01915L5.6184 6.66187C5.66834 6.78672 5.79318 6.83665 5.91803 6.83665C6.16772 6.83665 6.31753 6.58697 6.21765 6.36225L5.74325 5.38846C6.06784 5.26362 6.26759 4.91406 6.21765 4.53952C6.16772 4.11506 5.79318 3.81543 5.39368 3.81543H4.59468C4.39493 3.81543 4.24512 3.96524 4.24512 4.16499V6.51206C4.24512 6.68684 4.39493 6.83665 4.56971 6.83665C4.74449 6.83665 4.89431 6.68684 4.89431 6.51206V5.4384ZM4.89431 4.48959H5.41865C5.49356 4.48959 5.56846 4.56449 5.56846 4.6394C5.56846 4.71431 5.49356 4.78921 5.41865 4.78921H4.89431V4.48959Z" fill="black"/>
</g>
<defs>
<clipPath id="clip0">
<rect width="20" height="15.5056" fill="white" transform="translate(0.574219 0.794189)"/>
</clipPath>
</defs>
</svg>
