<svg width="28" height="20" viewBox="0 0 28 20" fill="none" xmlns="http://www.w3.org/2000/svg">
<path d="M2.90782 8.75557C2.58236 8.75557 2.26321 8.63549 2.02623 8.41115C1.07828 7.52323 -0.533242 5.49777 0.174562 4.20224C0.572701 3.47547 1.64073 2.74871 3.35652 2.04406C4.76896 1.46581 6.51003 0.957077 8.13419 0.647412C10.76 0.148157 14.2264 -0.341619 17.7685 0.321948C19.6644 0.679011 21.3992 1.34258 22.9254 2.29685C24.6759 3.39332 26.199 4.90688 27.4534 6.79015L28.0001 7.61487L27.0774 7.26096C27.0711 7.2578 26.3412 6.97974 23.3077 5.84219C20.328 4.72677 17.2472 3.83253 12.3557 5.16599C10.3619 5.70948 8.33958 6.5816 6.38364 7.42527C5.33457 7.87713 4.34239 8.30371 3.38812 8.66709C3.2238 8.72713 3.06581 8.75557 2.90782 8.75557ZM14.1126 0.647412C12.0303 0.647412 10.0175 0.934958 8.24794 1.2699C6.66487 1.57009 4.96803 2.06618 3.5935 2.62863C2.06098 3.25744 1.04352 3.92417 0.727533 4.50242C0.468427 4.9764 0.768611 5.68736 1.06248 6.20242C1.46378 6.90074 2.04518 7.56115 2.45596 7.94665C2.63291 8.11412 2.91414 8.16468 3.15113 8.0762C4.09592 7.71598 5.07863 7.29256 6.12137 6.84386C8.09627 5.99071 10.1407 5.11227 12.1788 4.55614C14.4665 3.93365 16.5552 3.73774 18.5616 3.95577C20.4196 4.158 22.0406 4.69833 23.5163 5.2513C24.8529 5.75056 25.744 6.0855 26.3222 6.30353C22.9538 1.85447 18.3879 0.647412 14.1126 0.647412Z" fill="black"/>
<path d="M16.4032 16.2601C14.4473 16.2601 12.3017 15.7956 10.0962 14.8824C6.5919 13.4352 4.41793 13.9471 4.39897 13.9534L4.24414 13.3404C4.33894 13.3151 6.6235 12.7621 10.3395 14.2978C15.9482 16.6171 20.7796 15.8904 23.2632 12.3545L23.7815 12.7179C22.467 14.5885 20.4952 15.7734 18.0811 16.14C17.5408 16.219 16.9815 16.2601 16.4032 16.2601Z" fill="black"/>
<path d="M16.3503 13.5838C15.7341 13.5838 15.0864 13.5143 14.4102 13.3689L14.5397 12.7496C16.5114 13.1667 18.2304 12.9266 19.5101 12.0544L19.8671 12.5758C18.8908 13.2457 17.6964 13.5838 16.3503 13.5838Z" fill="black"/>
<path d="M13.4368 13.1193C13.045 13.0024 12.6373 12.857 12.2266 12.6864L12.4667 12.1018C12.8585 12.263 13.2472 12.402 13.6201 12.5157L13.4368 13.1193Z" fill="black"/>
<path d="M5.75647 16.7437L5.45312 16.1907C6.72021 15.4987 7.33006 14.3422 7.57969 13.7166L8.16742 13.9504C7.88619 14.655 7.19735 15.9537 5.75647 16.7437Z" fill="black"/>
<path d="M25.1066 15.701C23.5014 15.464 22.6419 14.4371 22.2754 13.8462L22.8126 13.5112C23.1222 14.0105 23.8458 14.8763 25.2014 15.0754L25.1066 15.701Z" fill="black"/>
<path d="M8.9148 18.9587L8.5293 18.4594C10.1503 17.2082 10.52 15.3597 10.5927 14.8225L11.2183 14.9078C11.1362 15.505 10.7254 17.5621 8.9148 18.9587Z" fill="black"/>
<path d="M22.4873 18.3964C21.2897 17.6759 20.386 16.1813 19.9531 15.3566L20.5124 15.0627C20.9137 15.8306 21.7479 17.2146 22.8128 17.856L22.4873 18.3964Z" fill="black"/>
<path d="M18.4395 19.913C17.2577 18.5859 16.9322 16.7027 16.8438 15.9538L17.4726 15.8811C17.5516 16.5699 17.8517 18.3015 18.9103 19.4928L18.4395 19.913Z" fill="black"/>
<path d="M13.0359 19.8845L12.543 19.4926C13.6995 18.0391 13.7563 16.1085 13.7563 15.7356H14.3883C14.3883 16.3107 14.2904 18.3077 13.0359 19.8845Z" fill="black"/>
<path d="M2.98907 7.04285C2.95747 6.95437 2.21174 4.82779 3.13126 3.75977L3.6084 4.17371C3.03963 4.83095 3.39669 6.31608 3.57996 6.83114L2.98907 7.04285Z" fill="black"/>
<path d="M5.0163 6.07289C5.0005 5.98442 4.65924 3.89576 5.65459 2.84985L6.11277 3.28591C5.33545 4.10115 5.63563 5.9465 5.63879 5.96546L5.0163 6.07289Z" fill="black"/>
<path d="M7.2727 5.04908C7.2727 5.02696 7.25058 4.48347 7.32326 3.8673C7.42753 2.96674 7.66452 2.39797 8.04687 2.12622L8.41341 2.64128C8.00895 2.92882 7.87307 4.20856 7.90467 5.0238L7.2727 5.04908Z" fill="black"/>
<path d="M9.75075 4.07588C9.73495 3.89261 9.63068 2.26529 10.4649 1.58276L10.8662 2.07254C10.3732 2.477 10.348 3.62086 10.3796 4.02848L9.75075 4.07588Z" fill="black"/>
<path d="M12.5768 3.583L11.9512 3.49453C11.9765 3.32389 12.2166 1.81981 13.1045 1.37427L13.3889 1.93988C12.8833 2.19267 12.6305 3.2133 12.5768 3.583Z" fill="black"/>
<path d="M14.8837 3.30808L14.2676 3.17221C14.2834 3.10585 14.6341 1.57965 16.0845 1.42798L16.1508 2.05679C15.1555 2.1579 14.8932 3.26068 14.8837 3.30808Z" fill="black"/>
<path d="M17.1364 3.3428L16.6309 2.96361C16.6593 2.9257 17.3639 1.99986 18.4257 1.85767L18.511 2.48332C17.7084 2.59075 17.1428 3.33648 17.1364 3.3428Z" fill="black"/>
<path d="M19.5667 3.66502L19.2539 3.11521C19.355 3.05833 20.2651 2.54959 20.9539 2.65071L20.8623 3.27636C20.4578 3.21632 19.7911 3.53547 19.5667 3.66502Z" fill="black"/>
<path d="M23.0544 4.40762C22.7921 4.25279 22.2865 4.3223 22.1317 4.35706L21.9863 3.7409C22.0748 3.72194 22.8521 3.55131 23.3767 3.86097L23.0544 4.40762Z" fill="black"/>
</svg>
