<svg width="28" height="28" viewBox="0 0 28 28" fill="none" xmlns="http://www.w3.org/2000/svg">
<path d="M26.348 28H1.652C0.728 28 0 27.272 0 26.348V1.652C0 0.728 0.728 0 1.652 0H26.348C27.272 0 28 0.728 28 1.652V26.348C28 27.272 27.272 28 26.348 28ZM1.652 0.7C1.12 0.7 0.7 1.12 0.7 1.652V26.348C0.7 26.88 1.12 27.328 1.68 27.328H26.376C26.908 27.328 27.356 26.908 27.356 26.348V1.652C27.356 1.12 26.936 0.672 26.376 0.672H1.652V0.7Z" fill="black"/>
<path d="M14.1133 7.672C10.0533 7.672 6.77734 4.368 6.77734 0.336C6.77734 0.14 6.91734 0 7.11334 0C7.30934 0 7.44934 0.14 7.44934 0.336C7.44934 4.004 10.4453 7 14.1133 7C17.7813 7 20.7773 4.004 20.7773 0.336C20.7773 0.14 20.9173 0 21.1133 0C21.3093 0 21.4493 0.14 21.4493 0.336C21.4493 4.396 18.1453 7.672 14.1133 7.672Z" fill="black"/>
<path d="M14.1133 6.07608C13.9173 6.07608 13.7773 5.93607 13.7773 5.74007V4.31207C13.7773 4.11607 13.9173 3.97607 14.1133 3.97607C14.3093 3.97607 14.4493 4.11607 14.4493 4.31207V5.74007C14.4493 5.93607 14.2813 6.07608 14.1133 6.07608Z" fill="black"/>
<path d="M16.8287 5.43207C16.7167 5.43207 16.6047 5.37607 16.5207 5.26407L15.8207 4.03207C15.7367 3.86407 15.7927 3.66807 15.9327 3.55607C16.1007 3.47207 16.2967 3.52807 16.4087 3.66807L17.1087 4.90007C17.1927 5.06807 17.1367 5.26407 16.9967 5.37607C16.9407 5.40407 16.8847 5.43207 16.8287 5.43207Z" fill="black"/>
<path d="M18.8437 3.49993C18.7877 3.49993 18.7317 3.47193 18.6757 3.44393L17.4437 2.74393C17.2757 2.65993 17.2197 2.43593 17.3317 2.26793C17.4157 2.09993 17.6397 2.04393 17.8077 2.15593L19.0397 2.85593C19.2077 2.93993 19.2637 3.16393 19.1517 3.33193C19.0677 3.44393 18.9557 3.49993 18.8437 3.49993Z" fill="black"/>
<path d="M9.492 3.27604C9.38 3.27604 9.268 3.22004 9.184 3.10804C9.1 2.94004 9.156 2.74404 9.296 2.63204L10.528 1.93205C10.696 1.84805 10.892 1.90405 11.004 2.04405C11.088 2.21205 11.032 2.40805 10.892 2.52005L9.66 3.22004C9.604 3.24804 9.548 3.27604 9.492 3.27604Z" fill="black"/>
<path d="M11.4242 5.29193C11.3682 5.29193 11.3122 5.26393 11.2562 5.23593C11.0882 5.15193 11.0322 4.92793 11.1442 4.75993L11.8442 3.52794C11.9282 3.35994 12.1522 3.30394 12.3202 3.41593C12.4882 3.49993 12.5442 3.72393 12.4322 3.89193L11.7322 5.12393C11.6482 5.23593 11.5362 5.29193 11.4242 5.29193Z" fill="black"/>
<path d="M7.61639 25.1441C7.5884 25.1441 7.56039 25.1441 7.53239 25.1441C6.46839 25.1161 5.1804 24.3041 5.0964 22.1481C5.0684 21.6721 5.1244 21.1961 5.1524 20.7481C5.1804 20.2721 5.2364 19.8521 5.2084 19.4041C5.1804 18.7601 5.0124 18.0321 4.8444 17.3321C4.4244 15.5961 3.9764 13.6361 5.9084 12.4881C7.2244 11.7041 8.37239 11.4521 9.12839 11.3681C10.1364 11.2561 11.0604 11.8721 11.3404 12.8241C11.5924 13.7201 11.5084 14.6441 11.0884 15.4281C10.8644 15.8201 10.6124 16.1281 10.3324 16.4641C9.96839 16.9121 9.60439 17.3041 9.49239 17.8081C9.29639 18.5361 9.71639 20.5521 9.82839 20.9161C10.1084 21.8121 10.1084 22.5961 10.0524 23.1001C9.96839 24.3601 8.76439 25.1441 7.61639 25.1441ZM9.43639 12.0401C9.38039 12.0401 9.32439 12.0401 9.26839 12.0401C8.59639 12.1241 7.5324 12.3481 6.3284 13.0761C4.8164 13.9721 5.1804 15.4561 5.5724 17.1641C5.7404 17.8921 5.9084 18.6481 5.9364 19.3481C5.9644 19.8241 5.9084 20.3281 5.8804 20.7761C5.8524 21.2241 5.7964 21.6721 5.8244 22.0921C5.8804 23.5201 6.5244 24.3881 7.58839 24.4161C8.40039 24.4441 9.32439 23.8841 9.40839 22.9321C9.43639 22.5121 9.43639 21.8121 9.21239 21.0281C9.21239 21.0001 8.5964 18.5921 8.87639 17.5561C9.04439 16.9121 9.46439 16.4361 9.85639 15.9601C10.1084 15.6521 10.3604 15.3721 10.5284 15.0361C10.8644 14.4201 10.9484 13.6641 10.7244 12.9641C10.5564 12.4321 10.0244 12.0401 9.43639 12.0401Z" fill="black"/>
<path d="M11.8165 11.228C11.4525 11.228 11.1445 10.92 11.1445 10.556C11.1445 10.192 11.4525 9.88403 11.8165 9.88403C12.1805 9.88403 12.4885 10.192 12.4885 10.556C12.4605 10.92 12.1805 11.228 11.8165 11.228Z" fill="black"/>
<path d="M9.24036 10.752C9.6115 10.752 9.91236 10.4511 9.91236 10.08C9.91236 9.70882 9.6115 9.40796 9.24036 9.40796C8.86922 9.40796 8.56836 9.70882 8.56836 10.08C8.56836 10.4511 8.86922 10.752 9.24036 10.752Z" fill="black"/>
<path d="M6.86145 11.0598C7.23259 11.0598 7.53345 10.759 7.53345 10.3878C7.53345 10.0167 7.23259 9.71582 6.86145 9.71582C6.49032 9.71582 6.18945 10.0167 6.18945 10.3878C6.18945 10.759 6.49032 11.0598 6.86145 11.0598Z" fill="black"/>
<path d="M4.87317 11.9558C5.24431 11.9558 5.54517 11.655 5.54517 11.2838C5.54517 10.9127 5.24431 10.6118 4.87317 10.6118C4.50204 10.6118 4.20117 10.9127 4.20117 11.2838C4.20117 11.655 4.50204 11.9558 4.87317 11.9558Z" fill="black"/>
<path d="M3.64075 13.804C4.01189 13.804 4.31275 13.5031 4.31275 13.132C4.31275 12.7608 4.01189 12.46 3.64075 12.46C3.26961 12.46 2.96875 12.7608 2.96875 13.132C2.96875 13.5031 3.26961 13.804 3.64075 13.804Z" fill="black"/>
<path d="M20.384 25.1441C19.264 25.1441 18.032 24.3601 17.92 23.0161C17.864 22.5121 17.892 21.7561 18.144 20.8321C18.256 20.4681 18.676 18.4801 18.48 17.7241C18.34 17.2201 18.004 16.8281 17.64 16.3801C17.36 16.0721 17.108 15.7361 16.884 15.3441C16.464 14.5881 16.38 13.6361 16.632 12.7401C16.912 11.7881 17.836 11.1721 18.844 11.2841C19.6 11.3681 20.748 11.6481 22.064 12.4041C23.996 13.5521 23.548 15.5121 23.128 17.2481C22.96 17.9481 22.792 18.6481 22.764 19.3201C22.736 19.7681 22.792 20.2161 22.82 20.6641C22.848 21.1121 22.904 21.5881 22.876 22.0641C22.82 24.2201 21.532 25.0321 20.44 25.0601C20.412 25.1441 20.412 25.1441 20.384 25.1441ZM18.564 12.0401C17.976 12.0401 17.416 12.4321 17.248 13.0201C17.052 13.7201 17.108 14.4761 17.444 15.0921C17.612 15.4001 17.864 15.7081 18.116 16.0161C18.508 16.4921 18.928 16.9681 19.096 17.6121C19.376 18.6481 18.76 21.0841 18.76 21.0841C18.508 21.8681 18.508 22.5681 18.564 22.9881C18.648 23.9401 19.572 24.5001 20.384 24.4721C21.448 24.4441 22.092 23.5761 22.148 22.1481C22.148 21.7001 22.12 21.2801 22.092 20.8321C22.064 20.3561 22.008 19.8801 22.036 19.4041C22.064 18.6761 22.232 17.9481 22.4 17.2201C22.82 15.5121 23.156 14.0001 21.644 13.1321C20.44 12.4041 19.376 12.1801 18.704 12.0961C18.676 12.0401 18.62 12.0401 18.564 12.0401Z" fill="black"/>
<path d="M16.1837 11.228C16.5549 11.228 16.8557 10.9272 16.8557 10.556C16.8557 10.1849 16.5549 9.88403 16.1837 9.88403C15.8126 9.88403 15.5117 10.1849 15.5117 10.556C15.5117 10.9272 15.8126 11.228 16.1837 11.228Z" fill="black"/>
<path d="M18.7599 10.752C19.131 10.752 19.4319 10.4511 19.4319 10.08C19.4319 9.70882 19.131 9.40796 18.7599 9.40796C18.3888 9.40796 18.0879 9.70882 18.0879 10.08C18.0879 10.4511 18.3888 10.752 18.7599 10.752Z" fill="black"/>
<path d="M21.1408 11.0598C21.5119 11.0598 21.8128 10.759 21.8128 10.3878C21.8128 10.0167 21.5119 9.71582 21.1408 9.71582C20.7696 9.71582 20.4688 10.0167 20.4688 10.3878C20.4688 10.759 20.7696 11.0598 21.1408 11.0598Z" fill="black"/>
<path d="M23.1271 11.9558C23.4982 11.9558 23.7991 11.655 23.7991 11.2838C23.7991 10.9127 23.4982 10.6118 23.1271 10.6118C22.7559 10.6118 22.4551 10.9127 22.4551 11.2838C22.4551 11.655 22.7559 11.9558 23.1271 11.9558Z" fill="black"/>
<path d="M24.3595 13.804C24.7306 13.804 25.0315 13.5031 25.0315 13.132C25.0315 12.7608 24.7306 12.46 24.3595 12.46C23.9884 12.46 23.6875 12.7608 23.6875 13.132C23.6875 13.5031 23.9884 13.804 24.3595 13.804Z" fill="black"/>
</svg>
