<svg width="15" height="13" viewBox="0 0 15 13" fill="none" xmlns="http://www.w3.org/2000/svg">
<g clip-path="url(#clip0)">
<path d="M9.795 2.79004H0.661667C0.296667 2.79004 0 3.08671 0 3.45171V8.97337C0 9.33837 0.296667 9.63337 0.661667 9.63337H1.06167L1.56333 12.1734L4.04833 9.63337H9.795C10.16 9.63337 10.455 9.33671 10.4567 8.97337V3.45171C10.455 3.08671 10.16 2.79004 9.795 2.79004ZM2.50833 6.89504C2.13167 6.89504 1.825 6.59004 1.825 6.21171C1.825 5.83504 2.13 5.53004 2.50667 5.53004C2.88333 5.53004 3.19 5.83504 3.19 6.21171C3.19167 6.58837 2.885 6.89504 2.50833 6.89504ZM5.22833 6.89504C4.85167 6.89504 4.54667 6.59004 4.54667 6.21171C4.54667 5.83337 4.85167 5.53004 5.23 5.53004C5.60667 5.53004 5.91167 5.83504 5.91167 6.21171C5.91 6.58837 5.605 6.89504 5.22833 6.89504ZM7.94667 6.89504C7.57 6.89504 7.265 6.59004 7.265 6.21171C7.265 5.83337 7.57 5.53004 7.94833 5.53004C8.325 5.53004 8.63 5.83504 8.63 6.21171C8.63 6.58837 8.32333 6.89504 7.94667 6.89504Z" fill="#737373"/>
<path d="M14.3399 0H5.20659C4.84159 0 4.54492 0.296667 4.54492 0.661667V1.62333H9.79492C10.8033 1.625 11.6216 2.44333 11.6216 3.45167V7.52667L13.4383 9.38333L13.9399 6.84333H14.3399C14.7049 6.84333 14.9999 6.54833 14.9999 6.185V6.18333V0.661667C14.9999 0.296667 14.7049 0 14.3399 0Z" fill="#737373"/>
</g>
<defs>
<clipPath id="clip0">
<rect width="15" height="12.1733" fill="white"/>
</clipPath>
</defs>
</svg>
