<svg width="12" height="12" viewBox="0 0 12 12" fill="none" xmlns="http://www.w3.org/2000/svg">
<g clip-path="url(#clip0)">
<path d="M3.2362 8.38156C3.2362 7.6582 2.755 7.02604 2.05995 6.8279V0.440307C2.05995 0.198138 1.86181 0 1.61964 0C1.37747 0 1.17933 0.198138 1.17933 0.440307V6.8279C0.320734 7.06693 -0.179329 7.95698 0.0596948 8.81558C0.210657 9.35967 0.635239 9.78111 1.17933 9.93521V10.8787C1.17933 11.1209 1.37747 11.319 1.61964 11.319C1.86181 11.319 2.05995 11.1209 2.05995 10.8787V9.93521C2.755 9.74022 3.2362 9.10492 3.2362 8.38156ZM1.61964 9.12065C1.21393 9.12065 0.883698 8.79042 0.883698 8.3847C0.883698 7.97899 1.21393 7.64876 1.61964 7.64876C2.02535 7.64876 2.35558 7.97899 2.35558 8.3847C2.35558 8.79042 2.02535 9.12065 1.61964 9.12065Z" fill="black"/>
<path d="M11.4696 8.38156C11.4696 7.6582 10.9884 7.02604 10.2933 6.8279V0.440307C10.2933 0.198138 10.0952 0 9.85304 0C9.61087 0 9.41273 0.198138 9.41273 0.440307V6.8279C8.55413 7.06693 8.05407 7.95698 8.29309 8.81558C8.44406 9.35967 8.86864 9.78111 9.41273 9.93521V10.8787C9.41273 11.1209 9.61087 11.319 9.85304 11.319C10.0952 11.319 10.2933 11.1209 10.2933 10.8787V9.93521C10.9884 9.74022 11.4696 9.10492 11.4696 8.38156ZM9.85304 9.12065C9.44733 9.12065 9.1171 8.79042 9.1171 8.3847C9.1171 7.97899 9.44733 7.64876 9.85304 7.64876C10.2588 7.64876 10.589 7.97899 10.589 8.3847C10.589 8.79042 10.2588 9.12065 9.85304 9.12065Z" fill="black"/>
<path d="M4.12012 2.94065C4.12012 3.66401 4.60131 4.29617 5.29637 4.49431V10.8819C5.29637 11.1241 5.4945 11.3222 5.73667 11.3222C5.97884 11.3222 6.17698 11.1241 6.17698 10.8819V4.49431C7.03558 4.25528 7.53564 3.36523 7.29662 2.50663C7.14566 1.96254 6.72107 1.5411 6.17698 1.387V0.443481C6.17698 0.201312 5.97884 0.00317383 5.73667 0.00317383C5.4945 0.00317383 5.29637 0.201312 5.29637 0.443481V1.387C4.60131 1.58513 4.12012 2.21729 4.12012 2.94065ZM5.73667 2.20156C6.14238 2.20156 6.47262 2.53179 6.47262 2.93751C6.47262 3.34322 6.14238 3.67345 5.73667 3.67345C5.33096 3.67345 5.00073 3.34322 5.00073 2.93751C5.00073 2.53179 5.33096 2.20156 5.73667 2.20156Z" fill="black"/>
</g>
<defs>
<clipPath id="clip0">
<rect width="11.47" height="11.3222" fill="white"/>
</clipPath>
</defs>
</svg>
