<svg width="150" height="35" viewBox="0 0 150 35" fill="none" xmlns="http://www.w3.org/2000/svg">
<path fill-rule="evenodd" clip-rule="evenodd" d="M115.045 11.0036C118.661 13.0211 122.637 14.5438 129.555 10.1313C136.537 5.35702 139.659 5.52724 141.973 7.1683C138.834 7.51407 135.981 9.11257 133.262 11.2683C127.521 15.5305 126.612 15.4374 124.069 15.597C126.798 16.7912 129.692 17.7128 135.042 14.307C136.375 13.5158 138.166 12.4359 140.429 12.2644C141.393 12.1912 142.685 12.2245 143.574 12.6726C144.233 13.0038 144.758 13.6035 145.102 14.5797C145.899 18.5094 144.287 21.1386 142.257 23.5417C145.037 22.1147 147.198 19.7768 148.07 15.9149C148.668 15.3896 149.11 14.9108 149.708 14.4786C150.015 14.1927 150.092 13.8256 149.878 13.3588C149.675 13.053 149.452 12.7285 149.249 12.4226C149.237 11.8907 149.247 11.3787 149.235 10.8467C149.141 10.5395 148.922 10.3573 148.619 10.2589C148.813 9.93576 149.065 9.60462 148.224 9.2296C147.522 8.96495 147.467 8.57929 147.909 7.97154C148.638 6.78663 148.274 6.41825 146.841 6.49804C146.003 6.35841 145.417 6.02062 144.989 5.56847C144.502 5.05381 144.412 4.55377 144.162 3.92209C144.075 3.7 143.978 3.48456 143.87 3.27843C143.479 2.5204 142.985 1.95654 142.273 1.4831C139.863 -0.118059 136.579 0.537567 132.933 2.37811C129.623 4.3144 127.779 5.83311 123.332 8.55535C119.699 10.9132 117.31 11.1832 115.045 11.0036Z" fill="#FF326C"/>
<path opacity="0.5" fill-rule="evenodd" clip-rule="evenodd" d="M122.536 9.27895C124.618 8.0435 126.509 6.74555 128.735 5.2654C132.81 2.29048 136.609 0.769113 139.014 0.965934C142.061 1.2226 143.169 3.2081 141.862 3.31315C140.96 3.38497 139.914 3.20544 138.985 3.20677C137.827 3.2081 136.503 3.37965 134.583 4.22013C130.953 5.97024 127.836 8.13659 125.138 9.53296C124.43 9.9 123.705 10.2843 122.945 10.5237C121.346 11.0277 120.002 10.8668 122.536 9.27895ZM123.233 8.93851C120.241 10.8908 123.041 10.5011 124.819 9.5436C127.478 8.17516 130.7 5.96226 134.414 4.07384C136.42 3.16155 137.853 3.0525 139.523 2.99665C139.971 2.98202 140.406 2.99266 140.852 2.99798C142.533 3.01659 141.485 1.196 138.476 1.04041C136.34 1.02445 132.882 2.42347 129.041 5.16167C127.018 6.53277 125.176 7.71502 123.233 8.93851Z" fill="#F27FC9"/>
<path opacity="0.68" fill-rule="evenodd" clip-rule="evenodd" d="M125.534 10.7841C124.105 11.7283 124.297 11.9305 125.815 11.2921C129.383 9.46757 133.317 6.92485 136.334 5.68143C138.078 4.85026 138.487 4.32895 135.784 4.91941C132.188 6.04714 129.361 8.15366 125.534 10.7841Z" fill="white"/>
<path opacity="0.24" fill-rule="evenodd" clip-rule="evenodd" d="M123.846 9.85484C121.649 10.6235 121.97 9.88941 123.548 8.83217C125.401 7.73103 127.277 6.57538 129.258 5.15241C132.676 2.62832 135.952 1.3051 138.257 1.18408C141.427 1.26121 142.115 2.86105 140.177 2.79588C138.432 2.9834 137.114 2.65492 134.274 4.01272C130.373 5.99688 127.641 7.93583 125.091 9.29496C124.681 9.51439 124.284 9.7019 123.846 9.85484Z" fill="white"/>
<path opacity="0.5" fill-rule="evenodd" clip-rule="evenodd" d="M136.615 12.5437C137.872 11.7165 139.211 11.0396 140.74 11.0489C142.14 11.0582 142.005 11.4785 140.912 11.6208C139.733 11.7764 138.125 11.9359 136.615 12.5437Z" fill="white"/>
<path opacity="0.24" fill-rule="evenodd" clip-rule="evenodd" d="M141.703 6.98481C141.795 7.04333 141.885 7.1045 141.975 7.167C140.416 7.33856 138.927 7.81997 137.49 8.5248C135.91 9.62726 134.466 10.4598 132.613 12.1115C130.311 14.089 131.127 13.8695 133.361 12.6514C136.295 11.2005 138.967 10.0116 141.679 8.7828C142.313 8.55805 142.668 8.3599 143.034 7.83194C143.228 7.55134 143.44 7.47819 143.653 7.56065C144.132 7.7455 144.651 7.95695 145.24 8.03275C146.835 7.96759 145.49 5.91693 144.611 5.72409C144.131 5.62435 143.843 5.7334 143.714 6.32387C143.509 7.74949 142.572 7.31063 141.71 6.98348C141.706 6.98481 141.704 6.98481 141.703 6.98481Z" fill="white"/>
<path fill-rule="evenodd" clip-rule="evenodd" d="M134.525 10.9691C133.057 12.2099 132.126 13.0956 134.903 11.4824C137.12 10.3135 138.981 9.4012 140.941 8.59397C141.598 8.38119 141.744 7.81467 141.654 7.64711C141.522 7.38645 140.998 7.32661 140.221 7.60056C139.535 7.75882 137.303 8.79877 134.525 10.9691Z" fill="#FA73BF"/>
<path opacity="0.26" fill-rule="evenodd" clip-rule="evenodd" d="M143.805 22.5989C145.439 21.4246 146.757 19.8154 147.574 17.6025C146.35 19.3021 144.879 20.7849 143.805 22.5989Z" fill="white"/>
<path opacity="0.24" fill-rule="evenodd" clip-rule="evenodd" d="M149.256 14.8323C149.341 14.7592 149.428 14.6887 149.519 14.6182C149.662 14.2498 149.801 13.8722 149.927 13.4799C149.913 13.44 149.895 13.3987 149.877 13.3562C149.829 13.2844 149.781 13.2125 149.732 13.1394C149.605 13.7192 149.438 14.2791 149.256 14.8323Z" fill="white"/>
<path opacity="0.5" fill-rule="evenodd" clip-rule="evenodd" d="M124.83 8.4757C123.884 9.03558 123.639 9.63402 125.269 8.82812C130.279 5.8665 135.015 2.74396 137.761 2.51124C138.175 2.47666 138.567 2.50193 138.981 2.41283C139.997 2.19473 139.748 1.72395 138.604 1.57235C138.049 1.49921 137.627 1.53644 137.085 1.65613C134.905 2.13754 132.658 3.14558 129.798 5.10448C128.142 6.22822 126.486 7.35196 124.83 8.4757Z" fill="white"/>
<path opacity="0.12" fill-rule="evenodd" clip-rule="evenodd" d="M124.64 12.2271C124.936 12.263 129.373 9.7123 129.373 9.7123C133.743 7.60845 132.694 7.75074 135.897 6.40891C140.988 4.18935 138.605 3.80369 135.512 4.61757C130.45 6.3198 121.664 12.2949 124.64 12.2271Z" fill="#F0BAD4"/>
<path opacity="0.575" fill-rule="evenodd" clip-rule="evenodd" d="M134.835 10.8202C133.695 11.8229 133.071 12.4586 135.168 11.2817C137.257 10.1805 139.011 9.32808 140.858 8.56606C141.432 8.35062 141.57 7.86921 141.485 7.71229C141.361 7.46759 140.898 7.41174 140.166 7.6684C139.504 7.85325 137.433 8.81741 134.835 10.8202Z" fill="#FCB9DF"/>
<path opacity="0.15" fill-rule="evenodd" clip-rule="evenodd" d="M135.145 10.6711C134.332 11.4344 134.017 11.8214 135.434 11.0807C137.397 10.046 139.043 9.25342 140.779 8.53928C141.27 8.32118 141.398 7.92487 141.319 7.77726C141.203 7.54719 140.803 7.49533 140.114 7.73736C139.472 7.94881 137.561 8.83717 135.145 10.6711Z" fill="white"/>
<path fill-rule="evenodd" clip-rule="evenodd" d="M4.25913 19.0601H0V30.6964H4.25913C5.91767 30.6964 7.2392 30.1844 8.20911 29.1618C9.18168 28.1471 9.66863 26.7348 9.66863 24.9221C9.66863 23.1188 9.18168 21.6919 8.20115 20.636C7.22328 19.5867 5.9044 19.0601 4.25913 19.0601ZM4.25913 28.5354H2.48781V21.2211H4.25913C5.19057 21.2211 5.91237 21.5456 6.42054 22.2012C6.93137 22.8608 7.18082 23.7691 7.18082 24.9221C7.18082 27.2308 6.13925 28.5354 4.25913 28.5354ZM20.607 28.832C19.8693 29.2775 19.3519 28.9782 19.3519 28.1311V25.1469C19.3519 24.0138 19.0281 23.1055 18.374 22.4153C17.7212 21.7278 16.7924 21.3873 15.5744 21.3873C14.3882 21.3873 13.4408 21.656 12.7217 22.1906C12.0052 22.7305 11.6403 23.454 11.6403 24.3649L13.7964 24.6256C13.7964 23.8529 14.3961 23.2984 15.3063 23.2984C15.7203 23.2984 16.0467 23.4114 16.2908 23.6481C16.7778 24.1136 16.8441 24.6761 16.8654 25.5459C16.0693 25.3663 15.1843 25.2772 14.209 25.2772C13.3134 25.2772 12.5611 25.5046 11.9402 25.9594C11.3179 26.4116 11.0114 27.0872 11.0114 27.9928C11.0114 28.8732 11.3179 29.5687 11.9242 30.0847C12.5293 30.6033 13.2564 30.8627 14.1082 30.8627C15.5757 30.8707 16.6318 30.4251 17.2873 29.5248C17.481 30.3587 18.2161 30.8135 19.1833 30.8135C19.7579 30.8135 20.3244 30.6672 20.8751 30.368L20.607 28.832ZM16.864 26.8558V27.9755C16.3532 28.7349 15.7283 29.1166 14.9733 29.1166C14.5593 29.1166 14.2104 29.0035 13.9251 28.7841C13.6398 28.5647 13.4965 28.2295 13.4965 27.776C13.4965 26.9063 14.1215 26.5406 14.9388 26.5406C15.6235 26.5406 16.2643 26.6457 16.864 26.8558ZM22.3319 30.6964H24.8197C24.8197 28.8785 24.8582 27.2468 24.9325 25.7959C25.0705 24.5524 25.726 23.7479 26.66 23.7479C27.2186 23.7479 27.6499 23.958 27.9643 24.3716C28.2828 24.7958 28.434 25.3304 28.434 25.9874V28.4556C28.434 30.0102 29.258 30.8135 30.6233 30.8135C31.2124 30.8135 31.779 30.6672 32.3283 30.368L32.0457 28.8253C31.3331 29.2708 30.9046 28.9969 30.9046 28.1271L30.9205 25.2785C30.9205 24.0843 30.6352 23.1348 30.0806 22.4366C29.5167 21.7384 28.718 21.39 27.6724 21.39C26.4451 21.39 25.5389 22.0323 24.9471 23.3236H24.8171V21.4233L22.3293 21.6759V30.6964H22.3319ZM39.0619 21.4206V23.4513H38.9187C38.7302 22.8502 38.4622 22.3874 38.1053 22.0549C37.7736 21.7477 37.3676 21.5536 36.8886 21.4698C36.4109 21.398 35.9704 21.4392 35.5565 21.6081C34.7325 21.8275 34.0837 22.3395 33.6219 23.1348C33.1602 23.9327 32.9253 24.8743 32.9253 25.9634C32.9253 27.5872 33.4534 28.7974 34.3358 29.4929C35.2181 30.1884 36.3128 30.5129 37.6688 30.5129C38.2685 30.5129 38.7302 30.4717 39.0619 30.3999L39.0487 30.5688C38.9571 31.6739 38.2698 32.2923 37.1885 32.2258C36.119 32.2338 35.2924 31.9106 34.7006 31.251L33.736 32.8083C34.6423 33.6089 35.7953 34.0052 37.1885 34.0052C38.0562 34.0052 38.7886 33.8921 39.5714 33.5424C39.9668 33.3735 40.3065 33.1487 40.5891 32.8748C41.161 32.3229 41.5511 31.3813 41.5511 30.207V21.6759L39.0619 21.4206ZM37.1566 28.4995C36.6763 28.3612 36.2716 28.0753 35.9293 27.6457C35.5803 27.2135 35.4118 26.6536 35.4118 25.9634C35.4118 25.2652 35.5883 24.6801 35.9452 24.2147C36.2968 23.7519 36.7586 23.5577 37.3158 23.6215C37.6807 23.6628 38.0151 23.8822 38.3057 24.2639C38.5989 24.6469 38.8085 25.1256 38.9465 25.6855C39.0513 27.1483 39.0845 28.0899 39.046 28.5141C38.4065 28.7016 37.7816 28.7016 37.1566 28.4995ZM45.1282 26.1257C45.1282 25.361 45.3472 24.7519 45.7757 24.2971C46.2043 23.8423 46.7072 23.6162 47.2817 23.6162C48.164 23.6162 48.8513 24.1841 49.1193 25.0299L50.8601 24.3782C50.7301 23.4939 50.3095 22.7744 49.605 22.2145C48.9004 21.6666 48.1149 21.3887 47.2472 21.3887C45.9509 21.3887 44.8589 21.8182 43.9712 22.6853C43.0836 23.5497 42.6391 24.6974 42.6391 26.127C42.6391 27.5593 43.0836 28.703 43.9712 29.5647C44.8589 30.4318 45.9509 30.8613 47.2472 30.8613C48.5846 30.8693 49.7814 30.5289 50.8601 29.856L50.0972 27.8917C49.2573 28.4343 48.3803 28.687 47.4741 28.6564C46.8186 28.6484 46.26 28.4131 45.8076 27.9636C45.3551 27.5154 45.1282 26.8983 45.1282 26.1257ZM61.4071 28.832C60.6694 29.2775 60.152 28.9782 60.152 28.1311V25.1469C60.152 24.0138 59.8282 23.1055 59.1741 22.4153C58.5213 21.7278 57.5925 21.3873 56.3745 21.3873C55.1883 21.3873 54.2409 21.656 53.5218 22.1906C52.8053 22.7305 52.4404 23.454 52.4404 24.3649L54.5965 24.6256C54.5965 23.8529 55.1962 23.2984 56.1064 23.2984C56.5204 23.2984 56.8468 23.4114 57.0909 23.6481C57.5779 24.1136 57.6442 24.6761 57.6655 25.5459C56.8694 25.3663 55.9844 25.2772 55.0091 25.2772C54.1135 25.2772 53.3612 25.5046 52.7403 25.9594C52.118 26.4116 51.8115 27.0872 51.8115 27.9928C51.8115 28.8732 52.118 29.5687 52.7243 30.0847C53.3294 30.6033 54.0565 30.8627 54.9083 30.8627C56.3758 30.8707 57.4319 30.4251 58.0874 29.5248C58.2811 30.3587 59.0162 30.8135 59.9834 30.8135C60.558 30.8135 61.1245 30.6672 61.6752 30.368L61.4071 28.832ZM57.6641 26.8558V27.9755C57.1533 28.7349 56.5284 29.1166 55.7734 29.1166C55.3594 29.1166 55.0105 29.0035 54.7252 28.7841C54.4399 28.5647 54.2966 28.2295 54.2966 27.776C54.2966 26.9063 54.9216 26.5406 55.7389 26.5406C56.4235 26.5406 57.0644 26.6457 57.6641 26.8558ZM63.132 34.0264H65.6198V30.7456C65.9436 30.8121 66.3748 30.8454 66.9002 30.8454C68.2881 30.8454 69.4411 30.4238 70.3579 29.59C71.2788 28.7562 71.7405 27.5486 71.7405 25.9634C71.7405 24.8836 71.5057 23.9407 71.0466 23.1348C70.5848 22.3395 69.9413 21.8275 69.1094 21.6081C68.6954 21.4366 68.2549 21.398 67.7773 21.4698C67.2996 21.5496 66.9016 21.7464 66.5698 22.0549C66.2129 22.3874 65.9369 22.8529 65.7512 23.454H65.6212V21.4206L63.1333 21.6733V34.0264H63.132ZM65.6198 28.5155C65.5614 28.1723 65.5946 27.2388 65.7167 25.7201C65.8388 25.1522 66.0484 24.6695 66.3496 24.2745C66.6481 23.8835 66.9825 23.6654 67.3646 23.6229C67.9232 23.551 68.3849 23.7532 68.7352 24.216C69.0842 24.6788 69.2527 25.2666 69.2527 25.9648C69.2527 26.6709 69.0762 27.2481 68.7113 27.6936C68.3465 28.1431 67.9073 28.425 67.4124 28.5633C66.7861 28.7176 66.1957 28.7016 65.6198 28.5155ZM73.1828 34.0264H75.6706V30.7456C75.9943 30.8121 76.4256 30.8454 76.951 30.8454C78.3388 30.8454 79.4919 30.4238 80.4087 29.59C81.3295 28.7562 81.7913 27.5486 81.7913 25.9634C81.7913 24.8836 81.5564 23.9407 81.0973 23.1348C80.6356 22.3395 79.9921 21.8275 79.1601 21.6081C78.7462 21.4366 78.3057 21.398 77.828 21.4698C77.3504 21.5496 76.9523 21.7464 76.6206 22.0549C76.2637 22.3874 75.9877 22.8529 75.8019 23.454H75.6719V21.4206L73.1841 21.6733V34.0264H73.1828ZM75.6706 28.5155C75.6122 28.1723 75.6454 27.2388 75.7674 25.7201C75.8895 25.1522 76.0992 24.6695 76.4003 24.2745C76.6989 23.8835 77.0332 23.6654 77.4154 23.6229C77.974 23.551 78.4357 23.7532 78.786 24.216C79.1349 24.6788 79.3035 25.2666 79.3035 25.9648C79.3035 26.6709 79.127 27.2481 78.7621 27.6936C78.3972 28.1431 77.958 28.425 77.4631 28.5633C76.8369 28.7176 76.2464 28.7016 75.6706 28.5155ZM83.2335 30.6964H85.7213C85.7213 28.8785 85.7598 27.2468 85.8341 25.7959C85.9721 24.5524 86.6276 23.7479 87.5617 23.7479C88.1203 23.7479 88.5515 23.958 88.8659 24.3716C89.1844 24.7958 89.3356 25.3304 89.3356 25.9874V28.4556C89.3356 30.0102 90.1596 30.8135 91.5249 30.8135C92.114 30.8135 92.6806 30.6672 93.2299 30.368L92.9473 28.8253C92.2348 29.2708 91.8062 28.9969 91.8062 28.1271L91.8234 25.2785C91.8234 24.0843 91.5382 23.1348 90.9836 22.4366C90.4196 21.7384 89.6209 21.39 88.5754 21.39C87.348 21.39 86.4418 22.0323 85.85 23.3236H85.72V18.6465L83.2322 18.8965V30.6964H83.2335ZM103.291 28.832C102.554 29.2775 102.036 28.9782 102.036 28.1311V25.1469C102.036 24.0138 101.712 23.1055 101.058 22.4153C100.405 21.7278 99.4766 21.3873 98.2586 21.3873C97.0724 21.3873 96.125 21.656 95.4059 22.1906C94.6894 22.7305 94.3245 23.454 94.3245 24.3649L96.4806 24.6256C96.4806 23.8529 97.0804 23.2984 97.9906 23.2984C98.4045 23.2984 98.7309 23.4114 98.9751 23.6481C99.462 24.1136 99.5284 24.6761 99.5496 25.5459C98.7535 25.3663 97.8685 25.2772 96.8933 25.2772C95.9977 25.2772 95.2453 25.5046 94.6244 25.9594C94.0021 26.4116 93.6956 27.0872 93.6956 27.9928C93.6956 28.8732 94.0021 29.5687 94.6085 30.0847C95.2135 30.6033 95.9406 30.8627 96.7924 30.8627C98.2599 30.8707 99.3161 30.4251 99.9715 29.5248C100.165 30.3587 100.9 30.8135 101.868 30.8135C102.442 30.8135 103.009 30.6672 103.559 30.368L103.291 28.832ZM99.5483 26.8558V27.9755C99.0374 28.7349 98.4125 29.1166 97.6575 29.1166C97.2436 29.1166 96.8946 29.0035 96.6093 28.7841C96.3241 28.5647 96.1808 28.2295 96.1808 27.776C96.1808 26.9063 96.8057 26.5406 97.623 26.5406C98.3077 26.5406 98.9485 26.6457 99.5483 26.8558ZM106.412 20.3434C106.866 20.3434 107.239 20.2051 107.54 19.9365C107.838 19.6705 107.984 19.3127 107.984 18.8672C107.984 18.4191 107.838 18.0613 107.54 17.7954C107.239 17.5267 106.866 17.3884 106.412 17.3884C105.958 17.3884 105.588 17.5267 105.295 17.7954C104.996 18.0613 104.85 18.4191 104.85 18.8672C104.85 19.3127 105.006 19.6705 105.304 19.9365C105.605 20.2038 105.967 20.3434 106.412 20.3434ZM108.82 28.824C108.082 29.2695 107.654 28.9955 107.654 28.1258V21.4206L105.166 21.6733V28.4583C105.166 30.0102 106.026 30.8135 107.394 30.8135C107.968 30.8135 108.527 30.6672 109.078 30.368L108.82 28.824ZM119.568 28.832C118.83 29.2748 118.409 29.0009 118.409 28.1338V18.6452L115.921 18.8952V23.4553H115.791C115.631 22.8622 115.363 22.3967 114.998 22.0563C114.672 21.7491 114.268 21.5549 113.773 21.4711C113.278 21.3993 112.831 21.4405 112.416 21.6094C111.584 21.8289 110.934 22.3329 110.472 23.1055C110.01 23.8755 109.783 24.8344 109.783 25.9648C109.783 27.6138 110.207 28.8399 111.039 29.6419C111.873 30.4424 112.976 30.8467 114.364 30.8467C115.336 30.8467 116.066 30.6113 116.55 30.1352C116.938 30.5874 117.471 30.8135 118.14 30.8135C118.732 30.8135 119.29 30.6672 119.832 30.368L119.568 28.832ZM115.907 28.5075C115.312 28.7096 114.697 28.7096 114.047 28.5075C113.56 28.3612 113.148 28.0699 112.797 27.6377C112.449 27.2082 112.271 26.6483 112.271 25.9594C112.271 25.2613 112.448 24.6761 112.805 24.2147C113.156 23.7519 113.618 23.5577 114.175 23.6215C114.557 23.6628 114.892 23.8822 115.181 24.2811C115.474 24.6774 115.684 25.1562 115.806 25.7161C115.945 27.0779 115.978 28.0114 115.907 28.5075ZM128.744 30.0142L128.315 28.2694C127.379 28.699 126.417 28.9038 125.419 28.8705C124.722 28.8453 124.138 28.6684 123.669 28.3333C123.199 28.0008 122.942 27.5712 122.901 27.0499C123.799 27.2055 124.781 27.2441 125.833 27.1723C126.811 27.0672 127.58 26.776 128.138 26.2906C128.684 25.8025 128.928 25.1136 128.865 24.2093C128.806 23.5085 128.563 22.9327 128.13 22.4858C127.257 21.5882 126.172 21.3634 124.932 21.386C123.58 21.4193 122.48 21.8648 121.645 22.7292C120.813 23.5963 120.39 24.7134 120.39 26.0791C120.39 27.5287 120.868 28.6804 121.824 29.5501C122.77 30.4198 123.937 30.8574 125.321 30.8574C126.455 30.8853 127.597 30.6073 128.744 30.0142ZM124.852 23.2665C125.33 23.2665 125.728 23.3635 126.06 23.5524C126.383 23.7465 126.552 24.0404 126.56 24.4301C126.585 25.236 125.904 25.5937 124.868 25.5937C123.953 25.619 123.265 25.6017 122.812 25.5472V25.4474C122.834 24.8543 123.038 24.3503 123.425 23.9181C123.816 23.4925 124.294 23.2744 124.852 23.2665ZM130.275 34.0264H132.763V30.7456C133.087 30.8121 133.518 30.8454 134.043 30.8454C135.431 30.8454 136.584 30.4238 137.501 29.59C138.422 28.7562 138.884 27.5486 138.884 25.9634C138.884 24.8836 138.649 23.9407 138.19 23.1348C137.728 22.3395 137.084 21.8275 136.252 21.6081C135.838 21.4366 135.398 21.398 134.92 21.4698C134.443 21.5496 134.045 21.7464 133.713 22.0549C133.356 22.3874 133.08 22.8529 132.894 23.454H132.764V21.4206L130.276 21.6733V34.0264H130.275ZM132.763 28.5155C132.704 28.1723 132.738 27.2388 132.86 25.7201C132.982 25.1522 133.191 24.6695 133.493 24.2745C133.791 23.8835 134.126 23.6654 134.508 23.6229C135.066 23.551 135.528 23.7532 135.878 24.216C136.227 24.6788 136.396 25.2666 136.396 25.9648C136.396 26.6709 136.219 27.2481 135.854 27.6936C135.49 28.1431 135.05 28.425 134.555 28.5633C133.93 28.7176 133.339 28.7016 132.763 28.5155ZM140.285 30.6539C140.371 30.5768 140.413 30.473 140.413 30.3454C140.413 30.219 140.371 30.1166 140.285 30.0395C140.198 29.9624 140.091 29.9251 139.961 29.9251C139.831 29.9251 139.723 29.9624 139.639 30.0395C139.552 30.1166 139.51 30.219 139.51 30.3454C139.51 30.473 139.552 30.5754 139.639 30.6539C139.723 30.7323 139.831 30.7722 139.961 30.7722C140.091 30.7736 140.197 30.7337 140.285 30.6539ZM142.645 28.0633C142.451 28.9729 142.244 29.6791 142.025 30.1791H142.011C141.767 29.578 141.561 28.8745 141.391 28.0633H140.636C140.826 28.9822 141.122 29.86 141.529 30.6964H142.508C142.918 29.8453 143.217 28.9676 143.401 28.0633H142.645ZM143.768 30.6964H144.484C144.484 30.1725 144.495 29.703 144.517 29.2854C144.557 28.9277 144.745 28.6963 145.015 28.6963C145.175 28.6963 145.3 28.7575 145.39 28.8758C145.482 28.9982 145.526 29.1525 145.526 29.3413V30.0528C145.526 30.5009 145.763 30.7323 146.156 30.7323C146.326 30.7323 146.489 30.6898 146.647 30.6033L146.566 30.1592C146.36 30.2882 146.237 30.2084 146.237 29.9584L146.242 29.1378C146.242 28.7934 146.16 28.5208 146.001 28.3186C145.839 28.1178 145.608 28.0168 145.307 28.0168C144.954 28.0168 144.692 28.2016 144.521 28.574H144.484V28.0261L143.768 28.0992V30.6964Z" fill="#106909"/>
</svg>
