<svg width="29" height="24" viewBox="0 0 29 24" fill="none" xmlns="http://www.w3.org/2000/svg">
<g clip-path="url(#clip0)">
<path d="M18.5144 5.36472C18.2366 5.4778 18.1 5.79345 18.2133 6.07174L18.6213 7.07459C18.7336 7.35038 19.0527 7.48351 19.3306 7.37043C19.6085 7.25736 19.744 6.9392 19.6318 6.66341L19.2237 5.66056C19.1115 5.38478 18.7948 5.25062 18.5144 5.36472Z" fill="black"/>
<path d="M19.7387 8.37327C19.4609 8.48634 19.3243 8.80199 19.4376 9.08028L19.8457 10.0831C19.9579 10.3589 20.277 10.492 20.5549 10.379C20.8328 10.2659 20.9683 9.94774 20.8561 9.67196L20.448 8.66911C20.3358 8.39332 20.0191 8.25917 19.7387 8.37327Z" fill="black"/>
<path d="M20.963 11.3818C20.6851 11.4949 20.5486 11.8105 20.6618 12.0888L21.0699 13.0917C21.1821 13.3675 21.5013 13.5006 21.7792 13.3875C22.057 13.2744 22.1926 12.9563 22.0803 12.6805L21.6723 11.6777C21.56 11.4019 21.2434 11.2677 20.963 11.3818Z" fill="black"/>
<path d="M24.5002 5.31351C24.7158 5.17027 24.8013 4.89581 24.7044 4.65764L23.0517 0.596074C22.9394 0.320289 22.6228 0.186135 22.3424 0.300237L1.1229 8.93503C0.845027 9.04811 0.708476 9.36376 0.82172 9.64205L2.47448 13.7036C2.5714 13.9418 2.82431 14.0785 3.07863 14.0305C4.26324 13.8086 5.39857 14.5798 5.61802 15.7558C5.7767 16.6089 5.40523 17.476 4.67834 17.9617C4.46279 18.105 4.3772 18.3794 4.47412 18.6176L6.12688 22.6792C6.23911 22.955 6.55575 23.0891 6.83615 22.975L28.0556 14.3402C28.3335 14.2271 28.4701 13.9115 28.3568 13.6332L26.7041 9.57163C26.6071 9.33345 26.3542 9.19673 26.0999 9.2447C24.9153 9.46667 23.78 8.69545 23.5605 7.5194C23.4018 6.66637 23.7723 5.79674 24.5002 5.31351ZM25.8477 10.3614L27.1423 13.5429L23.1005 15.1877L22.8965 14.6862C22.7843 14.4105 22.4651 14.2773 22.1872 14.3904C21.9093 14.5035 21.7738 14.8216 21.886 15.0974L22.0901 15.5988L6.93329 21.7666L5.63863 18.585C6.99199 17.3885 7.11816 15.3324 5.92224 13.9926C5.26767 13.2596 4.3137 12.8617 3.32986 12.9113L2.03622 9.7323L17.193 3.56459L17.397 4.06601C17.5093 4.3418 17.8284 4.47493 18.1063 4.36185C18.3842 4.24878 18.5197 3.93062 18.4075 3.65483L18.2034 3.15341L22.2453 1.50868L23.5399 4.69024C22.1866 5.88679 22.0604 7.94282 23.2563 9.28261C23.9073 10.0142 24.8613 10.4121 25.8477 10.3614Z" fill="black"/>
<path d="M10.3435 12.781C11.1796 12.4407 11.5847 11.4898 11.247 10.6599C10.9093 9.83004 9.95534 9.43214 9.11919 9.77239C8.28304 10.1126 7.87796 11.0636 8.21565 11.8934C8.55334 12.7233 9.50731 13.1212 10.3435 12.781ZM9.52728 10.7752C9.80516 10.6622 10.1243 10.7953 10.2366 11.0711C10.3488 11.3469 10.2132 11.665 9.93537 11.7781C9.6575 11.8912 9.33833 11.758 9.2261 11.4823C9.11388 11.2065 9.24941 10.8883 9.52728 10.7752Z" fill="black"/>
<path d="M13.8755 8.00936L10.2613 16.4936C10.1403 16.7678 10.2648 17.0883 10.5399 17.2072C10.815 17.3261 11.1379 17.2006 11.2589 16.9263C11.2604 16.9228 11.2619 16.9193 11.2649 16.9122L14.8791 8.42797C14.993 8.15075 14.8609 7.83337 14.5803 7.72256C14.3057 7.6122 13.9925 7.73966 13.8755 8.00936Z" fill="black"/>
<path d="M14.7932 12.1391C13.9571 12.4793 13.552 13.4303 13.8897 14.2601C14.2274 15.09 15.1813 15.4879 16.0175 15.1476C16.8536 14.8074 17.2587 13.8565 16.921 13.0266C16.5833 12.1967 15.6294 11.7988 14.7932 12.1391ZM15.6094 14.1448C15.3315 14.2579 15.0123 14.1247 14.9001 13.849C14.7879 13.5732 14.9234 13.255 15.2013 13.1419C15.4792 13.0289 15.7983 13.162 15.9106 13.4378C16.0228 13.7136 15.8873 14.0317 15.6094 14.1448Z" fill="black"/>
</g>
<defs>
<clipPath id="clip0">
<rect width="24" height="15.1579" fill="white" transform="translate(0.617676 9.14062) rotate(-22.1428)"/>
</clipPath>
</defs>
</svg>
