<svg width="16" height="13" viewBox="0 0 16 13" fill="none" xmlns="http://www.w3.org/2000/svg">
<g clip-path="url(#clip0)">
<path d="M0 0.259675V10.2072C0 10.3471 0.11985 10.4669 0.259675 10.4669H1.29838C1.53808 11.5855 2.51685 12.4045 3.67541 12.4045C4.85393 12.4045 5.83271 11.5855 6.05243 10.4669H9.96754C10.2072 11.5855 11.186 12.4045 12.3446 12.4045C13.5231 12.4045 14.5019 11.5855 14.7216 10.4669H15.7403C15.8801 10.4669 16 10.3471 16 10.2072V4.85393C16 4.79401 15.98 4.75406 15.96 4.71411L12.8639 0.11985C12.824 0.0399501 12.7241 0 12.6442 0H0.27965C0.139825 0 0.019975 0.11985 0 0.259675ZM10.4469 9.96754C10.4469 8.90886 11.2859 8.06991 12.3446 8.06991C13.4032 8.06991 14.2422 8.92884 14.2422 9.96754C14.2422 11.0262 13.3833 11.8652 12.3446 11.8652C11.3059 11.8652 10.4669 11.0262 10.4469 9.96754ZM1.79775 9.96754C1.79775 8.90886 2.65668 8.06991 3.69538 8.06991C4.75406 8.06991 5.59301 8.92884 5.59301 9.96754C5.59301 11.0262 4.73408 11.8652 3.69538 11.8652C2.65668 11.8652 1.79775 11.0262 1.79775 9.96754ZM0.559301 0.519351H8.84894V7.31086C8.84894 7.45068 8.96879 7.57054 9.10861 7.57054C9.24844 7.57054 9.36829 7.45068 9.36829 7.31086V0.519351H12.5044L15.4607 4.93383V9.92759H14.7615C14.7416 8.62921 13.6629 7.55056 12.3446 7.55056C11.0262 7.55056 9.94757 8.62921 9.92759 9.92759H6.11236C6.09238 8.62921 5.01373 7.55056 3.69538 7.55056C2.37703 7.55056 1.29838 8.62921 1.2784 9.92759H0.559301V0.519351Z" fill="#106909"/>
<path d="M5.37393 4.83362H6.15296C6.29278 4.83362 6.41263 4.71377 6.41263 4.57394C6.41263 4.43412 6.29278 4.31427 6.15296 4.31427H5.65358V3.91476H6.15296C6.29278 3.91476 6.41263 3.79491 6.41263 3.65509C6.41263 3.51526 6.29278 3.39541 6.15296 3.39541H5.65358V2.99591H6.15296C6.29278 2.99591 6.41263 2.87606 6.41263 2.73624C6.41263 2.59641 6.29278 2.47656 6.15296 2.47656H5.35396C5.21413 2.47656 5.11426 2.57644 5.11426 2.71626V4.61389C5.11426 4.73374 5.21413 4.83362 5.37393 4.83362Z" fill="#106909"/>
<path d="M7.07218 4.83362H7.8512C7.99103 4.83362 8.11088 4.71377 8.11088 4.57394C8.11088 4.43412 7.99103 4.31427 7.8512 4.31427H7.35183V3.91476H7.8512C7.99103 3.91476 8.11088 3.79491 8.11088 3.65509C8.11088 3.51526 7.99103 3.39541 7.8512 3.39541H7.35183V2.99591H7.8512C7.99103 2.99591 8.11088 2.87606 8.11088 2.73624C8.11088 2.59641 7.99103 2.47656 7.8512 2.47656H7.0522C6.91238 2.47656 6.8125 2.57644 6.8125 2.71626V4.61389C6.8125 4.73374 6.93235 4.83362 7.07218 4.83362Z" fill="#106909"/>
<path d="M1.71759 3.91476H2.05717C2.19699 3.91476 2.31684 3.79491 2.31684 3.65509C2.31684 3.51526 2.19699 3.39541 2.05717 3.39541H1.71759V2.99591H2.25692C2.39674 2.99591 2.51659 2.87606 2.51659 2.73624C2.51659 2.59641 2.39674 2.47656 2.25692 2.47656H1.45792C1.31809 2.47656 1.19824 2.59641 1.19824 2.73624V4.59391C1.19824 4.73374 1.31809 4.85359 1.45792 4.85359C1.59774 4.85359 1.71759 4.73374 1.71759 4.59391V3.91476Z" fill="#106909"/>
<path d="M3.45587 3.71561H3.55575L4.03515 4.69439C4.0751 4.79426 4.17498 4.83421 4.27485 4.83421C4.4746 4.83421 4.59445 4.63446 4.51455 4.45469L4.13503 3.67566C4.3947 3.57579 4.5545 3.29614 4.51455 2.99651C4.4746 2.65694 4.17498 2.41724 3.85538 2.41724H3.21617C3.05637 2.41724 2.93652 2.53709 2.93652 2.69689V4.57454C2.93652 4.71436 3.05637 4.83421 3.1962 4.83421C3.33602 4.83421 3.45587 4.71436 3.45587 4.57454V3.71561ZM3.45587 2.95656H3.87535C3.93528 2.95656 3.9952 3.01649 3.9952 3.07641C3.9952 3.13634 3.93528 3.19626 3.87535 3.19626H3.45587V2.95656Z" fill="#106909"/>
</g>
<defs>
<clipPath id="clip0">
<rect width="16" height="12.4045" fill="white"/>
</clipPath>
</defs>
</svg>
