<svg width="22" height="22" viewBox="0 0 22 22" fill="none" xmlns="http://www.w3.org/2000/svg">
<path d="M16.004 14.71C19.1486 10.8501 18.57 5.17117 14.71 2.02654C10.8501 -1.11809 5.17117 -0.539458 2.02654 3.32052C-1.11809 7.18051 -0.539458 12.8594 3.32052 16.004C6.63606 18.7043 11.3945 18.7043 14.71 16.004L20.4353 21.7293C20.7918 22.0882 21.3704 22.0906 21.7293 21.7342C22.0882 21.3777 22.0906 20.7991 21.7342 20.4402C21.7317 20.4377 21.7317 20.4377 21.7293 20.4353L16.004 14.71ZM9.02627 16.1993C5.06618 16.1993 1.85564 12.9888 1.85564 9.02627C1.85564 5.06374 5.06618 1.85564 9.02627 1.85564C12.9863 1.85564 16.1993 5.06618 16.1993 9.02871C16.1945 12.9863 12.9863 16.1945 9.02627 16.1993Z" fill="#656565"/>
</svg>
