<svg width="20" height="20" viewBox="0 0 20 20" fill="none" xmlns="http://www.w3.org/2000/svg">
<g clip-path="url(#clip0)">
<path d="M14.549 13.3722C17.4077 9.86311 16.8817 4.70053 13.3726 1.8418C9.8636 -1.01692 4.70102 -0.490901 1.84229 3.01814C-1.01644 6.52719 -0.490413 11.6898 3.01863 14.5485C6.03273 17.0033 10.3586 17.0033 13.3726 14.5485L18.5774 19.7532C18.9014 20.0795 19.4275 20.0817 19.7537 19.7577C20.08 19.4336 20.0822 18.9076 19.7582 18.5813C19.756 18.5791 19.756 18.5791 19.7537 18.5769L14.549 13.3722ZM8.20563 14.7261C4.60558 14.7261 1.68693 11.8074 1.68693 8.20514C1.68693 4.60287 4.60558 1.68644 8.20563 1.68644C11.8057 1.68644 14.7265 4.60509 14.7265 8.20736C14.7221 11.8052 11.8057 14.7216 8.20563 14.7261Z" fill="#222222"/>
</g>
<defs>
<clipPath id="clip0">
<rect width="20" height="20" fill="white"/>
</clipPath>
</defs>
</svg>
