<svg width="15" height="12" viewBox="0 0 15 12" fill="none" xmlns="http://www.w3.org/2000/svg">
<g clip-path="url(#clip0)">
<path d="M0 0.243446V9.56929C0 9.70037 0.11236 9.81273 0.243446 9.81273H1.21723C1.44195 10.8614 2.35955 11.6292 3.44569 11.6292C4.55056 11.6292 5.46816 10.8614 5.67416 9.81273H9.34457C9.56929 10.8614 10.4869 11.6292 11.573 11.6292C12.6779 11.6292 13.5955 10.8614 13.8015 9.81273H14.7566C14.8876 9.81273 15 9.70037 15 9.56929V4.55056C15 4.49438 14.9813 4.45693 14.9625 4.41947L12.0599 0.11236C12.0225 0.0374532 11.9288 0 11.8539 0H0.262172C0.131086 0 0.0187266 0.11236 0 0.243446ZM9.79401 9.34457C9.79401 8.35206 10.5805 7.56554 11.573 7.56554C12.5655 7.56554 13.3521 8.37078 13.3521 9.34457C13.3521 10.3371 12.5468 11.1236 11.573 11.1236C10.5993 11.1236 9.81273 10.3371 9.79401 9.34457ZM1.68539 9.34457C1.68539 8.35206 2.49064 7.56554 3.46442 7.56554C4.45693 7.56554 5.24345 8.37078 5.24345 9.34457C5.24345 10.3371 4.4382 11.1236 3.46442 11.1236C2.49064 11.1236 1.68539 10.3371 1.68539 9.34457ZM0.524345 0.486891H8.29588V6.85393C8.29588 6.98502 8.40824 7.09738 8.53933 7.09738C8.67041 7.09738 8.78277 6.98502 8.78277 6.85393V0.486891H11.7228L14.4944 4.62547V9.30711H13.839C13.8202 8.08989 12.809 7.07865 11.573 7.07865C10.3371 7.07865 9.32584 8.08989 9.30712 9.30711H5.73034C5.71161 8.08989 4.70037 7.07865 3.46442 7.07865C2.22846 7.07865 1.21723 8.08989 1.1985 9.30711H0.524345V0.486891Z" fill="black"/>
<path d="M5.03837 4.53151H5.76871C5.89979 4.53151 6.01215 4.41915 6.01215 4.28807C6.01215 4.15698 5.89979 4.04462 5.76871 4.04462H5.30054V3.67009H5.76871C5.89979 3.67009 6.01215 3.55773 6.01215 3.42665C6.01215 3.29556 5.89979 3.1832 5.76871 3.1832H5.30054V2.80867H5.76871C5.89979 2.80867 6.01215 2.69631 6.01215 2.56522C6.01215 2.43414 5.89979 2.32178 5.76871 2.32178H5.01964C4.88855 2.32178 4.79492 2.41541 4.79492 2.5465V4.32552C4.79492 4.43788 4.88855 4.53151 5.03837 4.53151Z" fill="black"/>
<path d="M6.63016 4.53151H7.3605C7.49159 4.53151 7.60395 4.41915 7.60395 4.28807C7.60395 4.15698 7.49159 4.04462 7.3605 4.04462H6.89234V3.67009H7.3605C7.49159 3.67009 7.60395 3.55773 7.60395 3.42665C7.60395 3.29556 7.49159 3.1832 7.3605 3.1832H6.89234V2.80867H7.3605C7.49159 2.80867 7.60395 2.69631 7.60395 2.56522C7.60395 2.43414 7.49159 2.32178 7.3605 2.32178H6.61144C6.48035 2.32178 6.38672 2.41541 6.38672 2.5465V4.32552C6.38672 4.43788 6.49908 4.53151 6.63016 4.53151Z" fill="black"/>
<path d="M1.60994 3.67009H1.92829C2.05938 3.67009 2.17174 3.55773 2.17174 3.42665C2.17174 3.29556 2.05938 3.1832 1.92829 3.1832H1.60994V2.80867H2.11556C2.24664 2.80867 2.359 2.69631 2.359 2.56522C2.359 2.43414 2.24664 2.32178 2.11556 2.32178H1.36649C1.23541 2.32178 1.12305 2.43414 1.12305 2.56522V4.30679C1.12305 4.43788 1.23541 4.55024 1.36649 4.55024C1.49758 4.55024 1.60994 4.43788 1.60994 4.30679V3.67009Z" fill="black"/>
<path d="M3.23982 3.48334H3.33345L3.78289 4.40094C3.82035 4.49458 3.91398 4.53203 4.00761 4.53203C4.19488 4.53203 4.30724 4.34476 4.23233 4.17622L3.87653 3.44589C4.11997 3.35225 4.26979 3.09008 4.23233 2.80918C4.19488 2.49083 3.91398 2.26611 3.61435 2.26611H3.0151C2.86529 2.26611 2.75293 2.37847 2.75293 2.52829V4.28858C2.75293 4.41967 2.86529 4.53203 2.99638 4.53203C3.12746 4.53203 3.23982 4.41967 3.23982 4.28858V3.48334ZM3.23982 2.77173H3.63308C3.68926 2.77173 3.74544 2.82791 3.74544 2.88409C3.74544 2.94027 3.68926 2.99645 3.63308 2.99645H3.23982V2.77173Z" fill="black"/>
</g>
<defs>
<clipPath id="clip0">
<rect width="15" height="11.6292" fill="white"/>
</clipPath>
</defs>
</svg>
